<?xml version="1.0" encoding="UTF-8" standalone="no"?> <!-- Created with Vectornator for iOS (http://vectornator.io/) --><!DOCTYPE svg PUBLIC "-//W3C//DTD SVG 1.1//EN" "http://www.w3.org/Graphics/SVG/1.1/DTD/svg11.dtd">
<svg height="100%" style="fill-rule:nonzero;clip-rule:evenodd;stroke-linecap:round;stroke-linejoin:round;" xmlns:xlink="http://www.w3.org/1999/xlink" xmlns="http://www.w3.org/2000/svg" xml:space="preserve" width="100%" xmlns:vectornator="http://vectornator.io" version="1.1" viewBox="0 0 841.995 595.35">
<metadata>
<vectornator:setting key="DimensionsVisible" value="1"/>
<vectornator:setting key="PencilOnly" value="1"/>
<vectornator:setting key="SnapToPoints" value="0"/>
<vectornator:setting key="OutlineMode" value="0"/>
<vectornator:setting key="CMYKEnabledKey" value="0"/>
<vectornator:setting key="RulersVisible" value="1"/>
<vectornator:setting key="SnapToEdges" value="0"/>
<vectornator:setting key="GuidesVisible" value="1"/>
<vectornator:setting key="DisplayWhiteBackground" value="0"/>
<vectornator:setting key="doHistoryDisabled" value="0"/>
<vectornator:setting key="SnapToGuides" value="0"/>
<vectornator:setting key="TimeLapseWatermarkDisabled" value="0"/>
<vectornator:setting key="Units" value="Millimeters"/>
<vectornator:setting key="DynamicGuides" value="0"/>
<vectornator:setting key="IsolateActiveLayer" value="0"/>
<vectornator:setting key="SnapToGrid" value="0"/>
</metadata>
<defs/>
<g id="Layer 1" vectornator:layerName="Layer 1">
<path d="M209.001+91.2739L209.001+91.2739C209.113+91.2739+209.204+91.3647+209.204+91.4767L209.204+91.4767C209.204+91.5887+209.113+91.6795+209.001+91.6795L209.001+91.6795C208.889+91.6795+208.799+91.5887+208.799+91.4767L208.799+91.4767C208.799+91.3647+208.889+91.2739+209.001+91.2739Z" opacity="1" fill="#010101"/>
<path d="M147.828+160.202C147.828+160.202+133.008+162.102+125.893+169.549C118.777+176.995+119.317+190.028+119.317+190.028L121.571+245.781L341.485+245.03C341.623+244.433+341.795+243.866+342.143+243.386L341.438+243.386L371.03+188.149L482.912+188.149L511.094+244.466L646.039+243.996L646.005+193.357L644.043+181.48L640.649+174.799L634.181+168.436L621.402+162.657L595.52+160.582L523.428+160.046L147.828+160.202ZM235.615+176.312L298.555+176.312C300.986+176.312+302.97+179.114+302.97+182.606L302.97+221.451C302.97+224.943+300.986+227.745+298.555+227.745L235.615+227.745C233.183+227.745+231.247+224.943+231.246+221.451L231.246+182.606C231.246+179.114+233.183+176.312+235.615+176.312ZM172.816+207.735C178.809+207.735+183.619+212.367+183.619+218.069C183.619+223.771+178.809+228.355+172.816+228.355C166.823+228.355+161.966+223.771+161.966+218.069C161.966+212.367+166.822+207.735+172.816+207.735ZM593.574+211.728C598.298+211.728+602.123+215.259+602.122+219.666C602.122+224.072+598.298+227.698+593.574+227.698C588.85+227.698+585.025+224.073+585.025+219.666C585.025+215.259+588.85+211.728+593.574+211.728Z" opacity="1" fill="#010101"/>
<path stroke="#000000" stroke-width="2" d="M167.169+160.21L597.228+160.21C613.081+160.21+626.543+162.468+635.358+169.091C639.654+172.319+642.847+176.583+644.675+182.127C645.829+185.628+646.439+189.641+646.439+194.225L648.587+472.191C648.587+498.928+625.686+494.122+597.228+494.122L167.169+494.122C138.711+494.122+121.881+495.559+121.881+468.823L121.164+242.5L119.361+190.526C119.361+163.789+138.711+160.21+167.169+160.21Z" fill="none" stroke-linecap="round" opacity="1" stroke-linejoin="round"/>
<path d="M426.266+216.566C345.879+216.566+280.659+279.248+280.659+356.678C280.659+402.41+303.386+443.05+338.573+468.654C362.961+486.4+393.359+496.93+426.266+496.93C506.654+496.93+571.686+434.107+571.686+356.678C571.686+279.248+506.654+216.566+426.266+216.566ZM444.913+228.026C446.534+228.026+447.826+229.304+447.826+230.845C447.826+232.385+446.534+233.616+444.913+233.616C443.293+233.616+441.954+232.385+441.954+230.845C441.954+229.304+443.293+228.026+444.913+228.026ZM421.616+228.167C423.237+228.167+424.575+229.445+424.575+230.986C424.575+232.526+423.237+233.757+421.616+233.757C419.996+233.757+418.704+232.526+418.704+230.986C418.704+229.445+419.996+228.167+421.616+228.167ZM396.065+232.536C397.685+232.536+398.977+233.766+398.977+235.307C398.977+236.847+397.685+238.125+396.065+238.125C394.444+238.125+393.106+236.847+393.105+235.307C393.105+233.766+394.444+232.536+396.065+232.536ZM468.539+233.146C470.108+233.146+471.357+234.387+471.358+235.917C471.358+237.448+470.108+238.689+468.539+238.689C466.971+238.689+465.674+237.448+465.674+235.917C465.674+234.387+466.971+233.146+468.539+233.146ZM371.311+239.863C372.932+239.863+374.223+241.094+374.223+242.634C374.223+244.175+372.932+245.452+371.311+245.452C369.691+245.452+368.352+244.175+368.352+242.634C368.352+241.094+369.691+239.863+371.311+239.863ZM488.877+242.258C490.498+242.258+491.79+243.536+491.79+245.077C491.79+246.617+490.498+247.848+488.877+247.848C487.257+247.848+485.918+246.617+485.918+245.077C485.918+243.536+487.257+242.258+488.877+242.258ZM427.91+244.607C491.467+244.607+543.034+294.734+543.034+356.678C543.034+418.621+491.467+468.889+427.91+468.889C364.354+468.889+312.881+418.621+312.881+356.678C312.881+294.734+364.353+244.607+427.91+244.607ZM353.51+246.063C354.877+246.063+355.999+249.264+355.999+253.202C355.999+257.141+354.877+260.342+353.51+260.342C352.142+260.342+351.067+257.141+351.067+253.202C351.067+249.264+352.142+246.063+353.51+246.063ZM505.787+249.727C509.114+249.727+511.846+252.294+511.846+255.457C511.846+258.62+509.114+261.187+505.787+261.187C502.459+261.187+499.774+258.62+499.775+255.457C499.775+252.294+502.459+249.727+505.787+249.727ZM339.278+259.966C340.632+259.965+341.673+261.747+341.673+264.006C341.673+266.264+340.632+268.139+339.278+268.139C337.923+268.14+336.788+266.264+336.788+264.006C336.788+261.747+337.923+259.966+339.278+259.966ZM520.066+265.931C521.686+265.931+522.978+267.162+522.978+268.703C522.978+270.243+521.686+271.474+520.066+271.474C518.445+271.474+517.107+270.243+517.107+268.703C517.107+267.162+518.445+265.931+520.066+265.931ZM326.549+269.783C328.065+269.783+329.32+272.001+329.32+274.715C329.32+277.429+328.064+279.647+326.549+279.647C325.032+279.647+323.825+277.429+323.825+274.715C323.825+272.001+325.034+269.783+326.549+269.783ZM313.914+283.028C315.295+283.028+316.403+286.226+316.403+290.168C316.403+294.11+315.295+297.307+313.914+297.307C312.532+297.307+311.424+294.11+311.424+290.168C311.424+286.226+312.532+283.029+313.914+283.028ZM536.035+284.438C537.656+284.438+538.948+285.715+538.948+287.256C538.948+288.796+537.656+290.027+536.035+290.027C534.415+290.027+533.076+288.796+533.076+287.256C533.076+285.715+534.415+284.438+536.035+284.438ZM547.778+306.091C549.399+306.091+550.69+307.369+550.69+308.909C550.69+310.449+549.398+311.68+547.778+311.68C546.157+311.68+544.819+310.449+544.819+308.909C544.819+307.369+546.157+306.091+547.778+306.091ZM303.533+309.661C305.152+309.661+306.446+310.891+306.446+312.432C306.446+313.972+305.154+315.25+303.533+315.25C301.915+315.25+300.574+313.972+300.574+312.432C300.574+310.891+301.913+309.66+303.533+309.661ZM555.246+327.274C556.867+327.274+558.205+328.552+558.205+330.093C558.205+331.633+556.867+332.864+555.246+332.864C553.626+332.864+552.334+331.633+552.334+330.093C552.334+328.552+553.626+327.274+555.246+327.274ZM296.441+332.958C298.06+332.958+299.353+334.189+299.353+335.729C299.353+337.269+298.061+338.547+296.441+338.547C294.822+338.547+293.482+337.269+293.482+335.729C293.482+334.189+294.821+332.958+296.441+332.958ZM558.44+344.794C560.061+344.794+561.399+346.025+561.399+347.565C561.399+349.106+560.061+350.337+558.44+350.337C556.82+350.337+555.528+349.106+555.528+347.565C555.528+346.025+556.82+344.794+558.44+344.794ZM295.408+356.912C297.027+356.912+298.367+358.19+298.367+359.731C298.367+361.27+297.028+362.502+295.408+362.502C293.789+362.502+292.495+361.271+292.495+359.731C292.495+358.192+293.787+356.912+295.408+356.912ZM558.252+360.153C559.873+360.153+561.211+361.384+561.211+362.925C561.211+364.464+559.873+365.743+558.252+365.743C556.632+365.743+555.34+364.465+555.34+362.925C555.34+361.385+556.632+360.153+558.252+360.153ZM296.864+374.244C299.184+374.244+301.044+375.32+301.044+376.64C301.044+377.96+299.181+379.035+296.864+379.035C294.544+379.035+292.636+377.96+292.636+376.64C292.636+375.32+294.546+374.244+296.864+374.244ZM556.28+377.532C557.9+377.532+559.192+378.81+559.192+380.351C559.192+381.89+557.9+383.122+556.28+383.122C554.659+383.122+553.367+381.891+553.367+380.351C553.367+378.811+554.659+377.532+556.28+377.532ZM299.118+389.134C300.737+389.134+302.03+390.365+302.03+391.905C302.03+393.444+300.739+394.723+299.118+394.723C297.499+394.723+296.159+393.446+296.159+391.905C296.159+390.366+297.498+389.134+299.118+389.134ZM548.67+399.89C549.823+399.89+550.737+400.814+550.737+401.91C550.737+403.007+549.824+403.883+548.67+403.883C547.518+403.883+546.557+403.006+546.557+401.91C546.557+400.813+547.517+399.89+548.67+399.89ZM306.305+408.204C307.924+408.204+309.264+409.435+309.264+410.975C309.264+412.514+307.925+413.747+306.305+413.746C304.686+413.746+303.393+412.515+303.393+410.975C303.393+409.436+304.684+408.204+306.305+408.204ZM319.268+427.227C320.887+427.227+322.181+428.504+322.181+430.045C322.181+431.584+320.889+432.816+319.268+432.816C317.649+432.816+316.309+431.585+316.309+430.045C316.309+428.506+317.648+427.227+319.268+427.227ZM534.251+427.415C535.06+427.415+535.707+428.054+535.707+428.824C535.707+429.592+535.061+430.233+534.251+430.233C533.441+430.233+532.795+429.594+532.795+428.824C532.795+428.055+533.44+427.415+534.251+427.415ZM332.702+441.459C335.765+441.459+338.244+443.854+338.244+446.766C338.244+449.676+335.766+452.027+332.702+452.027C329.639+452.027+327.159+449.679+327.159+446.766C327.159+443.857+329.638+441.459+332.702+441.459ZM347.263+455.738C348.882+455.738+350.222+457.015+350.222+458.556C350.222+460.095+348.883+461.327+347.263+461.327C345.644+461.327+344.35+460.096+344.35+458.556C344.35+457.017+345.642+455.737+347.263+455.738ZM363.89+466.071C365.509+466.071+366.849+467.302+366.849+468.842C366.849+470.381+365.51+471.661+363.89+471.66C362.271+471.66+360.978+470.383+360.978+468.842C360.978+467.303+362.27+466.071+363.89+466.071ZM476.524+472.506C477.334+472.506+478.027+473.145+478.027+473.915C478.027+474.683+477.335+475.277+476.524+475.277C475.715+475.277+475.068+474.685+475.068+473.915C475.068+473.147+475.714+472.506+476.524+472.506ZM383.524+474.62C385.143+474.62+386.436+475.85+386.436+477.391C386.436+478.93+385.144+480.209+383.524+480.209C381.904+480.209+380.565+478.931+380.564+477.391C380.564+475.852+381.903+474.619+383.524+474.62ZM403.157+479.739C404.776+479.739+406.116+480.97+406.116+482.511C406.116+484.05+404.777+485.282+403.157+485.282C401.538+485.282+400.245+484.051+400.245+482.511C400.245+480.971+401.537+479.739+403.157+479.739ZM449.892+481.101C451.084+481.101+452.006+482.003+452.006+483.168C452.006+484.333+451.084+485.282+449.892+485.282C448.701+485.282+447.685+484.333+447.685+483.168C447.685+482.003+448.701+481.101+449.892+481.101ZM423.495+481.759C424.679+481.759+425.609+482.722+425.609+483.873C425.609+485.026+424.679+485.986+423.495+485.986C422.311+485.986+421.288+485.023+421.288+483.873C421.288+482.72+422.311+481.759+423.495+481.759Z" opacity="1" fill="#010101"/>
<path stroke="#000000" stroke-width="2" d="M509.955+466.604L648.587+466.604" fill="none" stroke-linecap="round" opacity="1" stroke-linejoin="round"/>
<path stroke="#000000" stroke-width="2" d="M123.561+466.604L339.282+466.604L344.632+466.604" fill="none" stroke-linecap="round" opacity="1" stroke-linejoin="round"/>
<path stroke="#000000" stroke-width="2" d="M426.059+271.66C379.738+271.66+342.162+309.022+342.162+355.172C342.162+401.322+379.738+438.762+426.059+438.762C472.379+438.762+509.955+401.322+509.955+355.172C509.955+309.022+472.379+271.66+426.059+271.66ZM417.231+299.446C419.414+299.433+421.359+300.055+422.835+301.288C428.737+306.22+425.483+319.803+415.62+331.608C405.756+343.412+392.968+348.974+387.066+344.042C381.163+339.11+384.417+325.528+394.281+313.723C401.679+304.869+410.684+299.486+417.231+299.446ZM383.995+355.172C391.687+355.172+397.889+361.451+397.888+369.142C397.888+376.834+391.687+383.035+383.995+383.036C376.304+383.036+370.025+376.834+370.025+369.142C370.025+361.451+376.303+355.172+383.995+355.172Z" fill="#010101" stroke-linecap="round" opacity="1" stroke-linejoin="round"/>
<path stroke="#000000" stroke-width="2" d="M455.359+445.588C474.041+451.879+510.767+420.782+504.201+405.085C494.991+425.743+472.792+437.133+455.359+445.588" fill="#010101" stroke-linecap="round" opacity="1" stroke-linejoin="round"/>
<path stroke="#000000" stroke-width="2" d="M238.34+184.046L294.048+184.046L294.048+218.997L238.34+218.997L238.34+184.046Z" fill="#010101" stroke-linecap="round" opacity="1" stroke-linejoin="round"/>
<path d="M218.048+90.2675L218.048+90.2675C218.158+90.2675+218.248+90.3569+218.248+90.4673L218.248+90.4673C218.248+90.5776+218.158+90.6671+218.048+90.6671L218.048+90.6671C217.938+90.6671+217.848+90.5776+217.848+90.4673L217.848+90.4673C217.848+90.3569+217.938+90.2675+218.048+90.2675Z" opacity="1" fill="#010101"/>
<path d="M149.039+138.254C146.326+138.254+144.126+140.453+144.126+143.166L144.126+155.294C144.126+158.007+146.325+160.207+149.039+160.207L199.546+160.207C202.259+160.207+204.458+158.007+204.458+155.294L204.458+143.166C204.458+140.453+202.259+138.254+199.546+138.254L149.039+138.254ZM195.784+142.552C196.349+142.176+197.097+142.295+197.473+142.859C198.832+144.898+198.862+148.35+198.164+151.84C198.031+152.505+197.371+152.971+196.705+152.838C196.04+152.705+195.651+152.045+195.784+151.38C196.361+148.494+196.281+145.562+195.401+144.241C195.024+143.677+195.22+142.929+195.784+142.552ZM169.226+142.783C169.899+142.867+170.385+143.491+170.301+144.164C169.968+146.829+170.069+150.219+170.531+152.991C170.643+153.66+170.202+154.262+169.533+154.373C168.864+154.485+168.186+154.044+168.075+153.375C167.574+150.373+167.481+146.763+167.844+143.857C167.929+143.184+168.553+142.699+169.226+142.783ZM178.207+143.013C178.885+143.013+179.435+143.563+179.435+144.241C179.435+145.478+179.223+149.68+179.205+150.075C179.153+151.185+179.128+152.067+179.128+152.915C179.128+153.593+178.578+154.143+177.9+154.143C177.221+154.143+176.672+153.593+176.672+152.915C176.672+152.024+176.695+151.066+176.748+149.921C176.767+149.521+176.787+149.184+176.825+148.463C176.937+146.321+176.979+145.421+176.979+144.241C176.979+143.563+177.529+143.013+178.207+143.013ZM160.552+143.09C161.231+143.09+161.781+143.639+161.781+144.318C161.781+144.855+161.708+147.352+161.704+147.772C161.684+149.681+161.876+151.006+162.241+152.224C162.436+152.874+162.046+153.564+161.397+153.759C160.747+153.954+160.057+153.564+159.862+152.915C159.411+151.411+159.225+149.831+159.248+147.695C159.252+147.257+159.324+144.824+159.324+144.318C159.324+143.64+159.874+143.09+160.552+143.09ZM186.42+143.09C187.04+142.814+187.833+143.084+188.109+143.704C188.746+145.138+188.881+146.76+188.799+148.923C188.784+149.34+188.766+149.684+188.723+150.382C188.651+151.532+188.646+151.974+188.646+152.531C188.646+153.209+188.096+153.759+187.418+153.759C186.739+153.759+186.19+153.209+186.19+152.531C186.19+151.905+186.328+149.161+186.343+148.77C186.412+146.95+186.257+145.716+185.806+144.702C185.53+144.082+185.8+143.365+186.42+143.09ZM151.265+143.627C151.934+143.739+152.374+144.34+152.263+145.009C152.09+146.041+152.098+147.2+152.186+148.616C152.217+149.121+152.258+149.473+152.339+150.382C152.494+152.115+152.57+152.869+152.57+153.836C152.57+154.514+152.019+155.064+151.341+155.064C150.663+155.064+150.113+154.514+150.113+153.836C150.113+152.968+149.762+149.227+149.73+148.693C149.631+147.107+149.676+145.869+149.883+144.625C149.994+143.956+150.596+143.515+151.265+143.627Z" opacity="1" fill="#010101"/>
<path d="M243.067+104.48C236.285+104.48+230.786+108.664+230.786+113.768L230.786+158.134C230.786+163.238+236.285+167.422+243.067+167.422L302.094+167.422C308.877+167.422+314.376+163.238+314.376+158.134L314.376+113.768C314.376+108.664+308.877+104.48+302.094+104.48L243.067+104.48ZM269.012+150.689C277.304+150.558+285.839+150.872+293.958+151.61C295.309+151.733+296.23+152.945+296.107+154.296C295.984+155.647+294.848+156.645+293.497+156.522C277.621+155.079+260.17+155.274+246.061+157.29C244.718+157.482+243.489+156.56+243.298+155.217C243.106+153.875+244.027+152.646+245.37+152.454C252.625+151.418+260.719+150.819+269.012+150.689ZM294.726+140.48C287.927+140.48+282.503+140.628+270.316+141.017C269.24+141.052+252.332+141.478+246.061+141.478C244.704+141.478+243.605+142.577+243.605+143.934C243.605+145.291+244.704+146.39+246.061+146.39C252.398+146.39+258.244+146.249+268.321+145.93C269.397+145.896+287.996+145.392+294.726+145.392C296.082+145.392+297.182+144.293+297.182+142.936C297.182+141.58+296.082+140.48+294.726+140.48ZM245.293+129.887C243.937+129.887+242.837+130.987+242.837+132.344C242.837+133.7+243.937+134.8+245.293+134.8C251.523+134.8+256.451+134.882+267.707+135.184C278.999+135.486+284.054+135.567+290.35+135.567C291.707+135.567+292.807+134.468+292.807+133.111C292.807+131.755+291.707+130.655+290.35+130.655C284.112+130.655+279.109+130.572+267.86+130.271C256.561+129.968+251.582+129.887+245.293+129.887Z" opacity="1" fill="none"/>
<path d="M342.162+132.344L342.162+160.207L509.341+160.207L509.341+132.344L342.162+132.344ZM369.949+137.026C371.287+136.803+372.566+137.684+372.789+139.022C373.267+141.893+373.479+144.639+373.479+148.309C373.479+149.666+372.379+150.766+371.023+150.766C369.667+150.766+368.567+149.666+368.567+148.309C368.567+144.888+368.38+142.355+367.953+139.789C367.729+138.451+368.61+137.249+369.949+137.026ZM385.53+137.179C386.818+136.75+388.171+137.504+388.601+138.791C388.891+139.662+389.109+140.535+389.215+141.478C389.345+142.648+389.353+143.493+389.292+145.469C389.265+146.314+389.215+146.693+389.215+147.158C389.215+148.514+388.114+149.614+386.759+149.614C385.402+149.614+384.302+148.515+384.302+147.158C384.302+146.626+384.351+146.211+384.379+145.316C384.434+143.573+384.399+142.875+384.302+142.015C384.234+141.402+384.17+140.854+383.995+140.326C383.566+139.039+384.242+137.608+385.53+137.179ZM402.647+137.486C403.996+137.337+405.261+138.287+405.411+139.636C405.83+143.41+405.863+146.064+405.411+149.23C405.219+150.573+403.914+151.495+402.571+151.303C401.228+151.111+400.307+149.882+400.498+148.54C400.885+145.829+400.875+143.566+400.498+140.173C400.348+138.825+401.299+137.636+402.647+137.486ZM354.597+137.793C355.953+137.793+357.053+138.893+357.053+140.25C357.053+144.231+357.239+147.112+357.744+149.384C358.038+150.708+357.227+152.006+355.902+152.301C354.578+152.595+353.202+151.783+352.908+150.458C352.304+147.738+352.141+144.57+352.141+140.25C352.141+138.893+353.241+137.793+354.597+137.793ZM418.229+137.793C419.545+138.122+420.324+139.394+419.995+140.71C419.479+142.775+419.969+145.954+421.069+148.156C421.676+149.369+421.208+150.85+419.995+151.456C418.782+152.063+417.301+151.595+416.694+150.382C415.094+147.181+414.419+142.827+415.236+139.559C415.565+138.243+416.914+137.464+418.229+137.793ZM433.044+138.1C434.382+138.323+435.339+139.602+435.116+140.94C434.919+142.122+434.875+143.457+434.963+145.469C434.977+145.802+435.01+146.04+435.039+146.621C435.125+148.274+435.116+149.027+435.116+149.921C435.116+151.278+434.016+152.377+432.66+152.377C431.303+152.377+430.204+151.278+430.204+149.921C430.204+149.142+430.066+146.049+430.05+145.699C429.948+143.371+430.015+141.695+430.28+140.096C430.503+138.758+431.705+137.877+433.044+138.1ZM493.836+138.561C494.702+139.221+494.731+139.211+494.911+139.559C495.143+139.977+495.165+140.085+495.294+140.864C495.313+140.975+495.214+141.061+495.218+141.171C495.228+141.612+495.287+144.729+495.294+145.469C495.315+147.481+495.222+149.021+494.987+150.075C494.693+151.399+493.395+152.211+492.071+151.917C490.746+151.623+489.934+150.324+490.228+149C490.355+148.431+490.398+147.189+490.382+145.546C490.375+144.815+490.304+141.152+490.305+140.94C490.306+140.744+490.281+140.579+490.305+140.403C490.307+140.164+490.309+140.186+490.843+139.175C491.958+138.2+491.926+138.233+493.836+138.561ZM447.09+138.714C448.378+138.286+449.732+138.963+450.161+140.25C450.717+141.918+450.85+143.701+450.698+146.16C450.673+146.569+450.597+146.88+450.545+147.542C450.427+149.032+450.391+149.562+450.391+150.228C450.391+151.585+449.291+152.684+447.935+152.684C446.578+152.685+445.478+151.585+445.478+150.228C445.479+149.385+445.762+146.226+445.786+145.853C445.902+143.975+445.863+142.707+445.555+141.785C445.126+140.498+445.803+139.143+447.09+138.714ZM476.719+139.098C478.035+138.769+479.383+139.624+479.713+140.94C480.489+144.044+480.308+146.311+479.329+150.228C478.999+151.544+477.651+152.399+476.335+152.07C475.019+151.741+474.241+150.393+474.57+149.077C475.371+145.871+475.498+144.269+474.954+142.092C474.625+140.776+475.403+139.427+476.719+139.098ZM461.905+139.559C462.339+139.591+462.651+139.885+463.286+140.403C463.812+141.293+463.806+141.284+463.824+141.478C463.86+141.633+463.878+141.751+463.9+141.938C463.957+142.414+464.079+143.372+464.131+144.395C464.263+147.015+464.296+149.304+464.131+150.458C463.939+151.801+462.634+152.8+461.291+152.608C459.948+152.416+459.027+151.111+459.218+149.768C459.321+149.045+459.334+146.905+459.218+144.625C459.178+143.838+459.102+143.259+459.065+142.859C459.055+142.772+458.988+142.719+458.988+142.629C458.988+141.9+458.946+141.721+459.065+141.324C459.141+141.003+459.153+141.021+459.832+140.173C460.934+139.784+461.471+139.526+461.905+139.559Z" opacity="1" fill="#010101"/>
<path stroke="#ffffff" stroke-width="1" d="M410.513+109.47C410.587+109.47+410.661+109.47+410.735+109.47" fill="none" stroke-linecap="round" opacity="1" stroke-linejoin="round"/>
<path stroke="#010101" stroke-width="3" d="M343.737+132.422C346.181+126.907+362.862+94.8958+369.931+85.6016C377.412+75.7651+471.409+75.8762+481.798+86.0973C487.635+91.839+506.512+122.89+507.85+132.438" fill="none" stroke-linecap="round" opacity="1" stroke-linejoin="round"/>
<path d="M243.528+120.446C236.481+120.446+230.786+126.376+230.786+133.648L230.786+161.512C230.786+168.784+236.481+174.714+243.528+174.714L301.557+174.714C308.604+174.714+314.376+168.784+314.376+161.512L314.376+133.648C314.376+126.376+308.604+120.446+301.557+120.446L243.528+120.446ZM245.293+129.887C251.582+129.887+256.561+129.968+267.86+130.271C279.109+130.572+284.112+130.655+290.35+130.655C291.707+130.655+292.807+131.755+292.807+133.111C292.807+134.468+291.707+135.567+290.35+135.567C284.054+135.567+278.999+135.486+267.707+135.184C256.451+134.882+251.523+134.8+245.293+134.8C243.937+134.8+242.837+133.7+242.837+132.344C242.837+130.987+243.937+129.887+245.293+129.887ZM294.726+140.48C296.082+140.48+297.182+141.58+297.182+142.936C297.182+144.293+296.082+145.392+294.726+145.392C287.996+145.392+269.397+145.896+268.321+145.93C258.244+146.249+252.398+146.39+246.061+146.39C244.704+146.39+243.605+145.291+243.605+143.934C243.605+142.577+244.704+141.478+246.061+141.478C252.332+141.478+269.24+141.052+270.316+141.017C282.503+140.628+287.927+140.48+294.726+140.48ZM269.012+150.689C277.304+150.558+285.839+150.872+293.958+151.61C295.309+151.733+296.23+152.945+296.107+154.296C295.984+155.647+294.848+156.645+293.497+156.522C277.621+155.079+260.17+155.274+246.061+157.29C244.718+157.482+243.489+156.56+243.298+155.217C243.106+153.875+244.027+152.646+245.37+152.454C252.625+151.418+260.719+150.819+269.012+150.689Z" opacity="1" fill="#010101"/>
<path d="M545.341+130.655C541.609+130.655+538.586+133.954+538.586+138.024L538.586+152.838C538.586+156.908+541.61+160.207+545.341+160.207L608.666+160.207C612.398+160.207+615.421+156.908+615.421+152.838L615.421+138.024C615.421+133.954+612.397+130.655+608.666+130.655L545.341+130.655ZM590.551+135.798C591.908+135.798+593.008+136.897+593.008+138.254C593.007+139.636+592.931+149.245+592.931+150.996C592.931+152.352+591.831+153.452+590.475+153.452C589.118+153.452+588.018+152.352+588.018+150.996C588.018+149.219+588.095+139.614+588.095+138.254C588.095+136.897+589.195+135.798+590.551+135.798ZM549.716+136.028C551.062+136.196+552.034+137.445+551.865+138.791C551.51+141.633+551.76+144.992+552.556+149.768C552.779+151.106+551.899+152.385+550.56+152.608C549.222+152.831+547.943+151.873+547.72+150.535C546.85+145.318+546.599+141.621+547.029+138.177C547.198+136.831+548.37+135.86+549.716+136.028ZM563.916+136.028C565.255+136.251+566.212+137.53+565.989+138.868C565.726+140.446+565.687+142.252+565.835+144.932C565.858+145.336+565.868+145.616+565.912+146.314C566.054+148.591+566.065+149.548+566.065+150.766C566.065+152.122+564.965+153.222+563.609+153.222C562.253+153.222+561.153+152.122+561.153+150.766C561.153+149.687+560.946+145.582+560.923+145.162C560.756+142.148+560.739+140.122+561.076+138.1C561.299+136.762+562.578+135.805+563.916+136.028ZM604.291+136.335C605.634+136.143+606.939+137.065+607.131+138.407C607.423+140.449+607.424+142.553+607.285+145.392C607.261+145.874+607.256+146.24+607.208+147.081C607.082+149.255+607.054+150.162+607.054+151.303C607.054+152.659+605.955+153.759+604.598+153.759C603.241+153.759+602.142+152.659+602.142+151.303C602.142+150.035+602.349+145.548+602.372+145.085C602.498+142.532+602.456+140.764+602.219+139.098C602.027+137.755+602.948+136.527+604.291+136.335ZM577.426+136.412C578.782+136.412+579.882+137.511+579.882+138.868C579.882+138.926+579.881+138.964+579.882+139.022C579.889+140.116+579.953+140.994+580.189+143.09C580.594+146.682+580.652+148.371+580.342+150.535C580.151+151.878+578.922+152.8+577.579+152.608C576.236+152.416+575.315+151.187+575.507+149.844C575.737+148.23+575.711+146.807+575.353+143.627C575.098+141.358+574.978+140.348+574.969+139.022C574.969+138.948+574.969+138.942+574.969+138.868C574.969+137.511+576.069+136.412+577.426+136.412Z" opacity="1" fill="#010101"/>
<path d="M587.061+147.58L587.274+147.58L587.274+147.58L587.061+147.58Z" opacity="1" fill="#010101"/>
<path d="M267.562+265.198C259.022+265.116+250.32+265.611+246.441+268.004C238.685+272.789+237.204+277.384+239.349+282.499C241.495+287.615+243.801+293.379+246.441+300.97C249.082+308.561+249.362+309.36+251.507+321.077C253.653+332.793+252.356+351.792+258.132+357.238C263.907+362.684+280.224+369.882+283.772+367.37C287.32+364.857+286.353+356.354+283.226+355.134C280.1+353.914+271.527+348.532+268.886+341.106C266.246+333.68+263.124+323.098+261.639+316.167L259.145+291.072C267.231+291.402+284.185+290.696+287.98+289.046C291.776+287.396+300.463+284.131+298.813+277.2C297.163+270.269+293.619+265.657+287.513+265.822C284.46+265.904+276.102+265.281+267.562+265.198ZM279.174+271.589C280.314+271.412+281.777+271.606+283.226+272.134C286.125+273.191+287.939+275.369+287.357+276.966C286.775+278.563+284.02+278.958+281.122+277.901C278.224+276.845+276.332+274.744+276.914+273.147C277.205+272.349+278.033+271.766+279.174+271.589ZM263.275+276.187C264.248+276.452+264.95+277.011+265.224+277.823C265.77+279.448+264.217+281.451+261.794+282.266C259.371+283.08+256.963+282.409+256.417+280.785C255.871+279.16+257.423+277.235+259.846+276.421C261.058+276.013+262.302+275.921+263.275+276.187Z" opacity="1" fill="#010101"/>
<path d="M80.1099+190.833C77.3879+191.062+75.1011+192.171+74.353+193.75C72.857+196.908+72.4722+204.601+71.9735+210.253C71.4749+215.905+73.0192+230.243+64.3745+236.121C57.5451+240.764+46.0145+251.446+37.4324+255.233C29.1069+258.908+10.1573+275.847+9.49245+284.325C8.82753+292.802+10.1456+298.848+11.6417+306.661C13.1378+314.474+18.9982+314.37+20.3153+300.137C21.6089+286.158+25.8207+285.691+35.1297+280.87C44.4386+276.05+60.0153+266.308+67.2145+269.894C74.9184+273.731+64.8846+294.832+61.2274+302.977C57.5703+311.122+51.7479+331.394+52.2467+339.207C52.7454+347.019+61.9711+369.494+65.6026+377.432C69.2342+385.371+80.9653+407.88+84.7921+413.355C88.619+418.83+101.561+435.818+104.442+442.063C107.324+448.307+121.866+468.851+121.866+468.851L121.636+439.453C121.636+439.453+120.282+438.181+110.736+427.095C101.191+416.008+86.339+401.93+96.2291+399.539C106.119+397.147+117.627+418.776+121.483+423.026L121.329+405.833C121.329+405.833+113.857+401.383+94.6172+378.814C75.5778+356.479+73.9584+358.079+70.9757+343.812C67.9219+329.205+66.4757+329.291+71.0524+314.951C76.4+298.196+79.4464+293.392+84.6386+279.949C89.8308+266.507+89.4841+267.298+93.8496+255.157C98.2151+243.015+99.1176+233.164+103.751+230.287C111.092+225.73+119.727+231.358+119.717+230.21L119.487+202.347C112.006+202.513+100.769+206.911+96.6129+201.426C92.4571+195.94+92.9776+197.279+88.323+193.289C85.9958+191.295+82.8319+190.605+80.1099+190.833ZM110.967+210.407C112.546+210.253+114.295+210.574+116.263+211.097L116.647+222.458C116.647+222.458+110.438+223.016+107.359+220.922C104.491+218.973+104.291+215.424+106.668+212.709C108.008+211.179+109.387+210.56+110.967+210.407Z" opacity="1" fill="#010101"/>
<path d="M695.403+187.302C695.403+187.302+677.441+193.597+673.527+201.426C669.612+209.255+656.284+202.687+646.508+202.961L646.661+227.293C646.661+227.293+661.538+226.695+670.149+228.521C678.762+230.348+684.027+255.479+687.42+265.135C690.813+274.791+697.322+302.332+699.932+310.422C702.541+318.512+708.544+344.81+711.676+355.249C714.807+365.688+708.334+385.291+695.403+392.937C686.849+397.995+647.966+395.854+647.966+395.854L648.12+411.436C648.12+411.436+664.013+411.764+671.992+411.82C683.683+411.901+703.081+411.83+713.211+408.059C722.016+404.78+734.878+398.113+737.466+386.95C740.212+375.108+736.604+365.692+733.935+355.249C729.784+339.004+716.174+322.381+715.13+314.03C714.086+305.679+706.855+286.642+704.767+279.335C702.68+272.028+696.566+248.793+701.16+244.257C709.622+235.901+715.299+244.979+717.125+249.937C718.952+254.895+722.545+259.885+724.11+267.975C725.676+276.065+722.299+282.805+722.038+292.461C721.777+302.117+729.622+312.817+731.709+317.254C733.797+321.69+742.885+318.543+743.146+314.107C743.407+309.67+743.438+290.895+744.221+284.632C745.004+278.368+741.627+260.606+739.539+256.692C737.451+252.777+728.869+243.382+724.955+237.118C721.04+230.855+716.02+226.418+711.062+221.46C706.103+216.501+703.002+208.718+703.002+208.718C703.002+208.718+704.063+201.025+705.381+194.364C706.776+187.318+695.403+187.302+695.403+187.302ZM658.482+210.867C660.851+210.724+662.819+210.832+665.16+211.404C670.159+212.626+671.697+220.178+665.467+221.69C661.866+222.564+653.891+222.098+649.194+221.536L649.118+211.635C653.282+211.383+656.113+211.011+658.482+210.867Z" opacity="1" fill="#010101"/>
<path d="M737.443+386.951C749.491+382.529+785.787+375.934+797.297+380.234C816.499+387.408+813.249+386.78+820.706+398.52C828.413+410.652+831.197+417.118+835.542+427.467C840.285+438.762+839.267+439.697+839.558+451.37C839.868+463.833+831.275+473.286+822.347+474.891C808.646+477.354+784.67+479.054+772.629+479.48C753.489+480.157+736.832+477.971+722.146+474.317C709.222+471.102+695.256+467.829+681.415+464.182C673.448+462.083+648.458+455.597+648.458+455.597C648.458+455.597+644.565+442.123+648.345+440.863C652.124+439.603+672.045+437.984+679.885+440.661C687.725+443.339+695.948+442.191+706.848+445.06C717.748+447.928+729.986+449.649+737.635+452.517C745.284+455.386+754.08+456.915+765.936+459.019C777.792+461.122+785.059+462.461+796.723+461.887C808.388+461.314+812.404+462.461+817.949+458.254C823.495+454.047+825.018+451.497+829.011+444.642C832.437+438.762+826.081+426.368+819.329+417.665C812.797+409.244+811.257+406.005+802.668+398.42C794.941+391.597+791.945+388.84+779.898+390.179C767.851+391.518+735.763+398.114+723.971+402.943" opacity="1" fill="#010101"/>
<path d="M681.158+411.841C676.133+413.444+670.914+416.322+669.498+425.252C667.64+436.975+679.885+440.661+679.885+440.661L648.345+440.863L648.117+411.417" opacity="1" fill="#010101"/>
<path d="M664.638+425.252C671.5+428.533+699.008+427.62+706.991+426.867C714.973+426.114+735.696+420.241+743.13+416.667C750.564+413.093+761.995+402.73+772.434+400.085C779.931+398.186+804.409+395.045+813.036+400.085C821.525+405.045+795.309+409.083+795.309+409.083C795.309+409.083+783.977+410.914+776.151+411.417C768.325+411.919+756.217+422.089+747.21+427.808C738.203+433.527+716.105+438.974+707.241+439.403C698.378+439.832+674.788+444.642+674.788+444.642" opacity="1" fill="#010101"/>
<g opacity="1">
<g opacity="1">
<g opacity="1">
<path stroke="#010101" stroke-width="1.28422" d="M777.209+356.539C774.878+356.462+778.081+347.368+778.386+346.236C780.92+336.813+784.19+327.546+786.241+318.004C786.823+315.297+787.475+312.381+787.566+309.606C787.569+309.508+787.856+308.391+787.18+308.538C785.62+308.875+782.32+322.238+782.263+323.993C782.059+330.265+784.121+334.498+789.814+337.326C791.9+338.363+794.618+339.483+795.981+341.539C798.602+345.492+796.327+352.522+792.399+354.717C788.386+356.959+791.617+348.885+791.982+348.161C794.925+342.334+798.203+336.708+801.986+331.395C802.693+330.401+804.703+326.694+803.865+325.337C803.296+324.417+802.36+327.933+802.299+328.24C801.587+331.805+801.018+335.289+800.898+338.957C800.875+339.676+801.04+342.972+802.237+343.011C804.891+343.098+803.299+327.941+804.845+327.48C805.273+327.352+805.56+328.329+805.651+328.561C806.129+329.792+808.364+339.352+809.946+338.622C811.811+337.76+813.708+326.796+813.961+325.036C814.173+323.565+814.714+322.104+814.945+320.636C815.034+320.076+815.229+318.39+815.21+318.957C815.04+324.183+812.121+337.802+820.961+329.487C821.488+328.992+821.892+328.553+822.276+327.842" fill="none" stroke-linecap="round" opacity="1" stroke-linejoin="round"/>
<path stroke="#010101" stroke-width="1.28422" d="M802.882+368.357C801.961+366.347+807.228+355.791+808.394+353.977C814.646+344.249+822.532+336.493+831.674+329.628C834.039+327.853+836.96+325.581+839.999+325.681" fill="none" stroke-linecap="round" opacity="1" stroke-linejoin="round"/>
<path stroke="#010101" stroke-width="1.28422" d="M814.456+312.726C814.529+311.038+812.597+310.666+812.839+312.655C813.024+314.177+814.779+314.911+815.338+316.166" fill="none" stroke-linecap="round" opacity="1" stroke-linejoin="round"/>
<path stroke="#010101" stroke-width="1.28422" d="M814.465+312.504C814.481+312.154+814.975+309.816+815.935+310.868C816.477+311.461+816.162+315.492+815.779+316.185" fill="none" stroke-linecap="round" opacity="1" stroke-linejoin="round"/>
<path stroke="#010101" stroke-width="1.28422" d="M824.802+344.16L824.658+344.079L824.578+344.224L824.569+344.445L824.712+344.526L824.863+344.458L825.016+344.317L825.026+344.096L824.958+343.945L824.808+344.012L824.655+344.153L824.655+344.153" fill="none" stroke-linecap="round" opacity="1" stroke-linejoin="round"/>
<path stroke="#010101" stroke-width="1.28422" d="M830.304+339.52L830.16+339.439L830.08+339.584L830.071+339.805L830.215+339.885L830.365+339.818L830.518+339.677L830.528+339.456L830.461+339.305L830.31+339.372L830.157+339.513L830.157+339.513" fill="none" stroke-linecap="round" opacity="1" stroke-linejoin="round"/>
</g>
<path stroke="#010101" stroke-width="1.28422" d="M777.209+356.539C774.878+356.462+778.081+347.368+778.386+346.236C780.92+336.813+784.19+327.546+786.241+318.004C786.823+315.297+787.475+312.381+787.566+309.606C787.569+309.508+787.856+308.391+787.18+308.538C785.62+308.875+782.32+322.238+782.263+323.993C782.059+330.265+784.121+334.498+789.814+337.326C791.9+338.363+794.618+339.483+795.981+341.539C798.602+345.492+796.327+352.522+792.399+354.717C788.386+356.959+791.617+348.885+791.982+348.161C794.925+342.334+798.203+336.708+801.986+331.395C802.693+330.401+804.703+326.694+803.865+325.337C803.296+324.417+802.36+327.933+802.299+328.24C801.587+331.805+801.018+335.289+800.898+338.957C800.875+339.676+801.04+342.972+802.237+343.011C804.891+343.098+803.299+327.941+804.845+327.48C805.273+327.352+805.56+328.329+805.651+328.561C806.129+329.792+808.364+339.352+809.946+338.622C811.811+337.76+813.708+326.796+813.961+325.036C814.173+323.565+814.714+322.104+814.945+320.636C815.034+320.076+815.229+318.39+815.21+318.957C815.04+324.183+812.121+337.802+820.961+329.487C821.488+328.992+821.892+328.553+822.276+327.842" fill="none" stroke-linecap="round" opacity="1" stroke-linejoin="round"/>
</g>
<path stroke="#010101" stroke-width="1.28422" d="M777.209+356.539C774.878+356.462+778.081+347.368+778.386+346.236C780.92+336.813+784.19+327.546+786.241+318.004C786.823+315.297+787.475+312.381+787.566+309.606C787.569+309.508+787.856+308.391+787.18+308.538C785.62+308.875+782.32+322.238+782.263+323.993C782.059+330.265+784.121+334.498+789.814+337.326C791.9+338.363+794.618+339.483+795.981+341.539C798.602+345.492+796.327+352.522+792.399+354.717C788.386+356.959+791.617+348.885+791.982+348.161C794.925+342.334+798.203+336.708+801.986+331.395C802.693+330.401+804.703+326.694+803.865+325.337C803.296+324.417+802.36+327.933+802.299+328.24C801.587+331.805+801.018+335.289+800.898+338.957C800.875+339.676+801.04+342.972+802.237+343.011C804.891+343.098+803.299+327.941+804.845+327.48C805.273+327.352+805.56+328.329+805.651+328.561C806.129+329.792+808.364+339.352+809.946+338.622C811.811+337.76+813.708+326.796+813.961+325.036C814.173+323.565+814.714+322.104+814.945+320.636C815.034+320.076+815.229+318.39+815.21+318.957C815.04+324.183+812.121+337.802+820.961+329.487C821.488+328.992+821.892+328.553+822.276+327.842" fill="none" stroke-linecap="round" opacity="1" stroke-linejoin="round"/>
</g>
</g>
</svg>
