<?xml version="1.0" encoding="UTF-8" standalone="no"?> <!-- Created with Vectornator for iOS (http://vectornator.io/) --><!DOCTYPE svg PUBLIC "-//W3C//DTD SVG 1.1//EN" "http://www.w3.org/Graphics/SVG/1.1/DTD/svg11.dtd">
<svg height="100%" style="fill-rule:nonzero;clip-rule:evenodd;stroke-linecap:round;stroke-linejoin:round;" xmlns:xlink="http://www.w3.org/1999/xlink" xmlns="http://www.w3.org/2000/svg" xml:space="preserve" width="100%" xmlns:vectornator="http://vectornator.io" version="1.1" viewBox="0 0 595.35 841.995">
<metadata>
<vectornator:setting key="DimensionsVisible" value="1"/>
<vectornator:setting key="SnapToGrid" value="1"/>
<vectornator:setting key="SnapToPoints" value="1"/>
<vectornator:setting key="GuidesVisible" value="1"/>
<vectornator:setting key="RulersVisible" value="1"/>
<vectornator:setting key="SnapToEdges" value="0"/>
<vectornator:setting key="DisplayWhiteBackground" value="0"/>
<vectornator:setting key="SnapToGuides" value="1"/>
<vectornator:setting key="GridSpacing" value="2.5"/>
<vectornator:setting key="Units" value="Millimeters"/>
<vectornator:setting key="DynamicGuides" value="0"/>
<vectornator:setting key="New" value="1"/>
</metadata>
<defs/>
<g id="Layer 1" vectornator:layerName="Layer 1">
<path d="M163.306+797.893L281.737+797.893L281.737+758.416L163.306+758.416" opacity="1" fill="#010101"/>
<path d="M308.055+797.893L426.487+797.893L426.487+758.416L308.055+758.416" opacity="1" fill="#010101"/>
<path d="M163.306+745.257L281.737+745.257L281.737+639.984L308.055+639.984L308.055+745.257L426.487+745.257L426.487+547.871L163.306+547.871" opacity="1" fill="#010101"/>
<path d="M163.306+534.712L426.487+534.712L426.487+482.076L387.009+245.213L202.783+245.213L163.306+482.076" opacity="1" fill="#010101"/>
<path d="M400.168+259.15C401.939+271.668+404.554+281.529+406.155+296.087C408.308+315.668+414.051+338.562+416.049+351.712C425.554+414.282+439.474+491.365+439.474+499.276C439.474+512.435+431.461+516.953+431.765+528.82C432.07+540.688+435.113+550.425+442.111+561.988C449.11+573.552+453.066+579.333+457.935+577.203C462.804+575.073+467.064+565.336+465.542+554.381C464.021+543.426+455.32+524.069+461.282+515.127C466.428+507.41+494.475+501.206+501.284+510.211C509.195+520.675+508.752+534.906+511.491+546.774C514.23+558.641+519.707+574.769+526.097+564.423C532.488+554.077+534.922+547.687+534.922+528.82C534.922+509.954+533.4+501.433+520.924+492.304C508.448+483.176+505.101+486.827+506.318+462.483C507.535+438.14+498.289+400.398+488.849+371.074C481.218+347.368+472.626+320.928+462.804+301.815C460.054+296.464+453.605+284.891+447.832+274.558C440.037+260.603+441.262+258.238+425.106+258.378" opacity="1" fill="#010101"/>
<path d="M189.624+259.15C187.854+271.668+185.238+281.529+183.637+296.087C181.484+315.668+175.741+338.562+173.743+351.712C164.238+414.282+150.318+491.365+150.318+499.276C150.318+512.435+158.331+516.953+158.027+528.82C157.723+540.688+154.68+550.425+147.681+561.988C140.682+573.552+136.726+579.333+131.857+577.203C126.989+575.073+122.728+565.336+124.25+554.381C125.771+543.426+134.473+524.069+128.51+515.127C123.365+507.41+95.3169+501.206+88.5085+510.211C80.597+520.675+81.0397+534.906+78.3011+546.774C75.5624+558.641+70.085+574.769+63.6948+564.423C57.3046+554.077+54.8702+547.687+54.8702+528.82C54.8702+509.954+56.3917+501.433+68.8679+492.304C81.344+483.176+84.6913+486.827+83.4741+462.483C82.2569+438.14+91.5027+400.398+100.943+371.074C108.575+347.368+117.166+320.928+126.989+301.815C129.738+296.464+136.187+284.891+141.96+274.558C149.755+260.603+148.531+258.238+164.686+258.378" opacity="1" fill="#010101"/>
<path d="M229.101+232.054L360.691+232.054L360.691+225.475C360.691+225.475+360.691+218.895+373.85+218.895C387.009+218.895+387.009+205.736+387.009+205.736C387.009+205.736+388.046+107.028+387.009+93.8842C385.974+80.7659+375.051+68.5253+367.271+67.5661C360.92+66.9523+354.112+67.5661+354.112+67.5661C354.112+67.5661+354.112+54.4071+354.112+41.248C354.112+28.089+235.68+28.089+235.68+41.248C235.68+54.4071+235.68+67.5661+235.68+67.5661C235.68+67.5661+229.245+67.3501+222.57+67.8938C215.882+69.7317+203.876+81.5123+202.783+93.8842C201.625+106.992+202.783+205.736+202.783+205.736C202.783+205.736+202.783+218.895+215.942+218.895C229.101+218.895+229.101+225.475+229.101+225.475" opacity="1" fill="#010101"/>
<g opacity="1">
<g opacity="1">
<g opacity="1">
<path stroke="#010101" stroke-width="1" d="M453.085+785.914C450.844+785.835+453.923+776.419+454.215+775.248C456.651+765.492+459.794+755.898+461.765+746.019C462.324+743.217+462.951+740.198+463.038+737.324C463.041+737.224+463.317+736.067+462.668+736.219C461.168+736.568+457.997+750.403+457.942+752.22C457.745+758.713+459.728+763.096+465.199+766.023C467.204+767.096+469.815+768.256+471.125+770.385C473.645+774.478+471.458+781.756+467.683+784.028C463.826+786.349+466.931+777.99+467.282+777.24C470.11+771.208+473.261+765.384+476.896+759.883C477.576+758.854+479.508+755.016+478.702+753.611C478.155+752.658+477.256+756.299+477.197+756.617C476.513+760.308+475.966+763.914+475.851+767.712C475.829+768.456+475.988+771.868+477.138+771.909C479.688+771.999+478.158+756.307+479.644+755.829C480.055+755.697+480.332+756.709+480.418+756.949C480.878+758.223+483.026+768.121+484.546+767.365C486.339+766.473+488.162+755.121+488.405+753.299C488.609+751.777+489.129+750.264+489.351+748.745C489.436+748.165+489.623+746.419+489.606+747.006C489.442+752.416+486.637+766.516+495.132+757.908C495.639+757.395+496.027+756.941+496.396+756.204" fill="none" stroke-linecap="round" opacity="1" stroke-linejoin="round"/>
<path stroke="#010101" stroke-width="1" d="M477.757+798.15C476.873+796.068+481.934+785.14+483.055+783.262C489.063+773.191+496.642+765.161+505.428+758.054C507.701+756.215+510.508+753.864+513.428+753.968" fill="none" stroke-linecap="round" opacity="1" stroke-linejoin="round"/>
<path stroke="#010101" stroke-width="1" d="M488.88+740.555C488.951+738.808+487.094+738.422+487.327+740.482C487.505+742.057+489.191+742.817+489.728+744.116" fill="none" stroke-linecap="round" opacity="1" stroke-linejoin="round"/>
<path stroke="#010101" stroke-width="1" d="M488.89+740.325C488.904+739.963+489.38+737.543+490.302+738.631C490.822+739.245+490.52+743.419+490.152+744.136" fill="none" stroke-linecap="round" opacity="1" stroke-linejoin="round"/>
<path stroke="#010101" stroke-width="1" d="M498.824+773.098L498.685+773.015L498.609+773.165L498.599+773.394L498.738+773.477L498.882+773.407L499.029+773.261L499.038+773.032L498.974+772.876L498.83+772.945L498.682+773.091L498.682+773.091" fill="none" stroke-linecap="round" opacity="1" stroke-linejoin="round"/>
<path stroke="#010101" stroke-width="1" d="M504.111+768.294L503.973+768.211L503.896+768.361L503.887+768.59L504.025+768.673L504.17+768.603L504.317+768.457L504.326+768.228L504.262+768.072L504.118+768.142L503.97+768.288L503.97+768.288" fill="none" stroke-linecap="round" opacity="1" stroke-linejoin="round"/>
</g>
<path stroke="#010101" stroke-width="1" d="M453.085+785.914C450.844+785.835+453.923+776.419+454.215+775.248C456.651+765.492+459.794+755.898+461.765+746.019C462.324+743.217+462.951+740.198+463.038+737.324C463.041+737.224+463.317+736.067+462.668+736.219C461.168+736.568+457.997+750.403+457.942+752.22C457.745+758.713+459.728+763.096+465.199+766.023C467.204+767.096+469.815+768.256+471.125+770.385C473.645+774.478+471.458+781.756+467.683+784.028C463.826+786.349+466.931+777.99+467.282+777.24C470.11+771.208+473.261+765.384+476.896+759.883C477.576+758.854+479.508+755.016+478.702+753.611C478.155+752.658+477.256+756.299+477.197+756.617C476.513+760.308+475.966+763.914+475.851+767.712C475.829+768.456+475.988+771.868+477.138+771.909C479.688+771.999+478.158+756.307+479.644+755.829C480.055+755.697+480.332+756.709+480.418+756.949C480.878+758.223+483.026+768.121+484.546+767.365C486.339+766.473+488.162+755.121+488.405+753.299C488.609+751.777+489.129+750.264+489.351+748.745C489.436+748.165+489.623+746.419+489.606+747.006C489.442+752.416+486.637+766.516+495.132+757.908C495.639+757.395+496.027+756.941+496.396+756.204" fill="none" stroke-linecap="round" opacity="1" stroke-linejoin="round"/>
</g>
<path stroke="#010101" stroke-width="1" d="M453.085+785.914C450.844+785.835+453.923+776.419+454.215+775.248C456.651+765.492+459.794+755.898+461.765+746.019C462.324+743.217+462.951+740.198+463.038+737.324C463.041+737.224+463.317+736.067+462.668+736.219C461.168+736.568+457.997+750.403+457.942+752.22C457.745+758.713+459.728+763.096+465.199+766.023C467.204+767.096+469.815+768.256+471.125+770.385C473.645+774.478+471.458+781.756+467.683+784.028C463.826+786.349+466.931+777.99+467.282+777.24C470.11+771.208+473.261+765.384+476.896+759.883C477.576+758.854+479.508+755.016+478.702+753.611C478.155+752.658+477.256+756.299+477.197+756.617C476.513+760.308+475.966+763.914+475.851+767.712C475.829+768.456+475.988+771.868+477.138+771.909C479.688+771.999+478.158+756.307+479.644+755.829C480.055+755.697+480.332+756.709+480.418+756.949C480.878+758.223+483.026+768.121+484.546+767.365C486.339+766.473+488.162+755.121+488.405+753.299C488.609+751.777+489.129+750.264+489.351+748.745C489.436+748.165+489.623+746.419+489.606+747.006C489.442+752.416+486.637+766.516+495.132+757.908C495.639+757.395+496.027+756.941+496.396+756.204" fill="none" stroke-linecap="round" opacity="1" stroke-linejoin="round"/>
</g>
</g>
</svg>
