<?xml version="1.0" encoding="UTF-8" standalone="no"?> <!-- Created with Vectornator for iOS (http://vectornator.io/) --><!DOCTYPE svg PUBLIC "-//W3C//DTD SVG 1.1//EN" "http://www.w3.org/Graphics/SVG/1.1/DTD/svg11.dtd">
<svg height="100%" style="fill-rule:nonzero;clip-rule:evenodd;stroke-linecap:round;stroke-linejoin:round;" xmlns:xlink="http://www.w3.org/1999/xlink" xmlns="http://www.w3.org/2000/svg" xml:space="preserve" width="100%" xmlns:vectornator="http://vectornator.io" version="1.1" viewBox="0 0 595.35 765.45">
<metadata>
<vectornator:setting key="DimensionsVisible" value="1"/>
<vectornator:setting key="PencilOnly" value="1"/>
<vectornator:setting key="SnapToPoints" value="0"/>
<vectornator:setting key="OutlineMode" value="0"/>
<vectornator:setting key="CMYKEnabledKey" value="0"/>
<vectornator:setting key="RulersVisible" value="1"/>
<vectornator:setting key="SnapToEdges" value="0"/>
<vectornator:setting key="GuidesVisible" value="1"/>
<vectornator:setting key="DisplayWhiteBackground" value="0"/>
<vectornator:setting key="doHistoryDisabled" value="0"/>
<vectornator:setting key="SnapToGuides" value="0"/>
<vectornator:setting key="TimeLapseWatermarkDisabled" value="0"/>
<vectornator:setting key="Units" value="Millimeters"/>
<vectornator:setting key="DynamicGuides" value="0"/>
<vectornator:setting key="IsolateActiveLayer" value="0"/>
<vectornator:setting key="SnapToGrid" value="0"/>
</metadata>
<defs/>
<g id="Layer 1" vectornator:layerName="Layer 1">
<g opacity="1">
<g opacity="1">
<g opacity="1">
<path stroke="#010101" stroke-width="1" d="M433.008+739.267C431.133+739.214+433.677+731.921+433.918+731.014C435.923+723.46+438.52+716.027+440.136+708.38C440.595+706.211+441.109+703.874+441.172+701.65C441.174+701.572+441.401+700.677+440.858+700.797C439.605+701.073+436.998+711.784+436.958+713.19C436.816+718.212+438.489+721.595+443.077+723.839C444.758+724.662+446.947+725.549+448.051+727.191C450.173+730.347+448.367+735.984+445.216+737.755C441.997+739.565+444.567+733.088+444.858+732.507C447.204+727.831+449.82+723.315+452.844+719.047C453.41+718.249+455.013+715.274+454.334+714.19C453.873+713.455+453.133+716.274+453.085+716.52C452.525+719.377+452.079+722.168+451.996+725.106C451.98+725.682+452.124+728.32+453.087+728.347C455.221+728.408+453.888+716.277+455.13+715.902C455.473+715.798+455.708+716.579+455.781+716.765C456.17+717.749+458.001+725.396+459.27+724.806C460.767+724.109+462.254+715.323+462.452+713.913C462.617+712.735+463.047+711.563+463.228+710.387C463.297+709.938+463.448+708.587+463.435+709.041C463.316+713.226+461.016+724.142+468.096+717.453C468.518+717.054+468.842+716.702+469.148+716.131" fill="none" stroke-linecap="round" opacity="1" stroke-linejoin="round"/>
<path stroke="#010101" stroke-width="1" d="M453.694+748.641C452.946+747.034+457.145+738.563+458.076+737.106C463.07+729.295+469.384+723.057+476.711+717.528C478.607+716.098+480.948+714.269+483.392+714.339" fill="none" stroke-linecap="round" opacity="1" stroke-linejoin="round"/>
<path stroke="#010101" stroke-width="1" d="M462.806+704.054C462.859+702.703+461.304+702.411+461.506+704.004C461.66+705.222+463.074+705.803+463.527+706.806" fill="none" stroke-linecap="round" opacity="1" stroke-linejoin="round"/>
<path stroke="#010101" stroke-width="1" d="M462.813+703.877C462.824+703.596+463.214+701.723+463.989+702.561C464.427+703.034+464.188+706.263+463.882+706.82" fill="none" stroke-linecap="round" opacity="1" stroke-linejoin="round"/>
<path stroke="#010101" stroke-width="1" d="M471.236+729.188L471.12+729.124L471.056+729.24L471.049+729.417L471.165+729.481L471.286+729.427L471.409+729.313L471.416+729.136L471.361+729.015L471.241+729.07L471.118+729.183L471.118+729.183" fill="none" stroke-linecap="round" opacity="1" stroke-linejoin="round"/>
<path stroke="#010101" stroke-width="1" d="M475.644+725.453L475.528+725.39L475.465+725.505L475.458+725.683L475.574+725.746L475.694+725.692L475.817+725.578L475.824+725.401L475.769+725.281L475.649+725.335L475.526+725.449L475.526+725.449" fill="none" stroke-linecap="round" opacity="1" stroke-linejoin="round"/>
</g>
<path stroke="#010101" stroke-width="1" d="M433.008+739.267C431.133+739.214+433.677+731.921+433.918+731.014C435.923+723.46+438.52+716.027+440.136+708.38C440.595+706.211+441.109+703.874+441.172+701.65C441.174+701.572+441.401+700.677+440.858+700.797C439.605+701.073+436.998+711.784+436.958+713.19C436.816+718.212+438.489+721.595+443.077+723.839C444.758+724.662+446.947+725.549+448.051+727.191C450.173+730.347+448.367+735.984+445.216+737.755C441.997+739.565+444.567+733.088+444.858+732.507C447.204+727.831+449.82+723.315+452.844+719.047C453.41+718.249+455.013+715.274+454.334+714.19C453.873+713.455+453.133+716.274+453.085+716.52C452.525+719.377+452.079+722.168+451.996+725.106C451.98+725.682+452.124+728.32+453.087+728.347C455.221+728.408+453.888+716.277+455.13+715.902C455.473+715.798+455.708+716.579+455.781+716.765C456.17+717.749+458.001+725.396+459.27+724.806C460.767+724.109+462.254+715.323+462.452+713.913C462.617+712.735+463.047+711.563+463.228+710.387C463.297+709.938+463.448+708.587+463.435+709.041C463.316+713.226+461.016+724.142+468.096+717.453C468.518+717.054+468.842+716.702+469.148+716.131" fill="none" stroke-linecap="round" opacity="1" stroke-linejoin="round"/>
</g>
<path stroke="#010101" stroke-width="1" d="M433.008+739.267C431.133+739.214+433.677+731.921+433.918+731.014C435.923+723.46+438.52+716.027+440.136+708.38C440.595+706.211+441.109+703.874+441.172+701.65C441.174+701.572+441.401+700.677+440.858+700.797C439.605+701.073+436.998+711.784+436.958+713.19C436.816+718.212+438.489+721.595+443.077+723.839C444.758+724.662+446.947+725.549+448.051+727.191C450.173+730.347+448.367+735.984+445.216+737.755C441.997+739.565+444.567+733.088+444.858+732.507C447.204+727.831+449.82+723.315+452.844+719.047C453.41+718.249+455.013+715.274+454.334+714.19C453.873+713.455+453.133+716.274+453.085+716.52C452.525+719.377+452.079+722.168+451.996+725.106C451.98+725.682+452.124+728.32+453.087+728.347C455.221+728.408+453.888+716.277+455.13+715.902C455.473+715.798+455.708+716.579+455.781+716.765C456.17+717.749+458.001+725.396+459.27+724.806C460.767+724.109+462.254+715.323+462.452+713.913C462.617+712.735+463.047+711.563+463.228+710.387C463.297+709.938+463.448+708.587+463.435+709.041C463.316+713.226+461.016+724.142+468.096+717.453C468.518+717.054+468.842+716.702+469.148+716.131" fill="none" stroke-linecap="round" opacity="1" stroke-linejoin="round"/>
</g>
</g>
<g id="Layer 2" vectornator:layerName="Layer 2">
<g opacity="1">
<path stroke="#010101" stroke-width="3.1" d="M468.149+393.09C478.276+385.181+470.206+359.458+468.419+356.594C466.633+353.73+475.638+345.759+479.936+338.038C484.096+330.566+490.976+308.625+490.979+305.441C490.981+302.256+512.55+317.536+518.961+326.029C525.373+334.522+533.41+353.702+531.91+366.733C530.409+379.763+530.512+385.22+524.001+399.784C517.489+414.348+512.478+413.967+514.885+426.629C517.292+439.291+511.823+448.636+506.574+460.504C501.325+472.371+488.997+476.718+482.648+478.53C476.299+480.342+473.413+456.046+472.947+450.178C472.481+444.31+470.625+425.883+469.178+419.112C467.73+412.341+459.603+399.763+468.149+393.09Z" fill="#fdb92e" stroke-linecap="butt" opacity="1" stroke-linejoin="round"/>
<path stroke="#010101" stroke-width="3.1" d="M166.379+501.153C152.948+514.185+168.523+543.66+182.472+559.745C184.92+562.568+183.28+545.357+194.677+539.618C206.074+533.878+226.926+535.271+233.9+545.757C240.873+556.244+251.826+567.989+252.948+581.19C254.071+594.392+255.532+603.608+254.856+611.579C254.179+619.551+264.854+627.612+278.657+628.028C292.46+628.444+318.208+631.409+337.591+624.505C356.974+617.602+373.843+618.349+391.137+604.066C408.431+589.783+421.99+582.22+430.991+569.099C439.992+555.977+454.542+539.525+459.884+523.613C465.225+507.701+473.347+489.357+473.766+475.247C474.184+461.138+471.861+417.698+464.016+401.068C456.17+384.439+455.608+371.36+440.61+361.467C425.611+351.574+416.446+352.072+402.293+357.176C388.14+362.28+349.352+378.75+337.943+386.023C326.533+393.296+285.94+405.345+271.45+414.128C256.961+422.91+240.263+420.072+222.774+439.514C205.286+458.957+219.517+476.625+201.497+491.897C188.926+502.551+171.099+496.573+166.379+501.153Z" fill="#fdb92e" stroke-linecap="butt" opacity="1" stroke-linejoin="round"/>
<path stroke="#010101" stroke-width="3.1" d="M168.359+608.748C165.435+629.28+159.687+655.276+154.658+654.883C143.605+654.018+140.105+649.828+132.126+650.071C124.147+650.315+101.612+667.604+101.499+683.386C101.406+696.286+107.11+709.57+116.214+722.221C125.319+734.872+143.019+748.144+153.124+750.678C163.228+753.212+180.612+761.316+190.2+751.574C199.788+741.832+224.769+696.46+234.651+677.6C247.039+653.958+256.053+624.798+255.618+616.022C254.837+600.244+252.531+572.395+245.685+562.563C238.839+552.73+231.831+540.031+223.202+538.242C214.574+536.454+195.298+533.054+189.862+542.739C184.427+552.424+171.283+588.215+168.359+608.748Z" fill="#fdb92e" stroke-linecap="butt" opacity="1" stroke-linejoin="round"/>
<path stroke="#010101" stroke-width="3.1" d="M313.551+628.792C310.701+649.522+306.968+674.438+305.081+690.441C303.193+706.444+298.538+721.758+301.289+738.732C304.039+755.706+322.127+760.072+328.937+762.596C335.748+765.12+375.488+763.984+386.933+756.585C398.378+749.187+402.103+747.145+408.919+737.156C415.283+727.828+418.231+717.85+412.288+712.078C406.346+706.306+396.768+702.627+385.7+701.459C374.265+700.252+373.688+696.075+379.057+688.287C384.425+680.498+398.221+664.29+402.169+652.779C406.117+641.268+415.006+625.485+418.772+613.989C422.538+602.494+428.596+572.612+426.284+575.062C423.971+577.512+414.805+585.748+408.078+590.865C401.351+595.983+388.058+607.369+381.967+610.362C375.876+613.355+362.314+617.824+355.897+619.396C349.48+620.969+319.384+628.359+314.065+628.763" fill="#fdb92e" stroke-linecap="butt" opacity="1" stroke-linejoin="round"/>
<path stroke="#010101" stroke-width="3.1" d="M140.393+316.486C131.859+321.573+114.652+332.115+106.53+343.194C98.4068+354.274+84.824+366.445+90.9334+380.111C97.0428+393.776+117.153+414.916+127.872+425.374C138.59+435.832+147.09+443.938+147.09+443.938C147.09+443.938+136.861+451.699+135.212+464.143C133.218+479.184+150.223+494.072+159.938+497.136C168.312+499.777+187.369+499.625+198.677+494.029C209.984+488.432+213.534+470.183+219.806+456.433C226.077+442.683+230.75+435.658+226.569+426.212C222.389+416.766+217.139+409.302+211.124+402.442C205.109+395.581+194.345+383.016+193.355+380.759C192.366+378.502+192.738+371.013+191.013+360.847C189.287+350.682+175.326+339.76+168.696+332.063C165.146+327.942+148.927+311.4+140.393+316.486Z" fill="#fdb92e" stroke-linecap="butt" opacity="1" stroke-linejoin="round"/>
<path stroke="#010101" stroke-width="2.71669" d="M220.358+262.874C194.528+246.932+181.571+226.024+182.074+206.361C182.636+184.363+201.025+158.693+198.382+143.768C195.74+128.842+190.826+122.82+193.148+109.273C195.47+95.7263+205.504+78.1639+222.529+62.5476C230.253+55.4618+256.699+44.3232+280.45+41.7179C290.445+40.6216+309.946+45.2987+325.289+50.7534C341.006+56.3406+352.504+62.7962+357.216+69.1749C362.912+76.8843+364.605+110.271+378.712+113.345C393.946+116.664+412.526+139.604+416.713+153.79C421.879+171.288+415.46+197.791+408.34+216.36C401.781+233.465+395.639+242.335+381.353+261.08C369.114+277.139+355.502+297.251+340.644+297.451C322.274+297.699+281.816+277.491+265.28+272.489C251.502+268.321+232.015+270.068+220.358+262.874Z" fill="#fdb92e" stroke-linecap="butt" opacity="1" stroke-linejoin="round"/>
<path stroke="#010101" stroke-width="3.1" d="M312.886+46.7943C311.64+36.9537+319.275+5.39526+332.885+5.50287C346.496+5.61048+355.224+11.6356+362.715+20.4213C370.505+29.5574+370.786+45.9769+364.018+53.2266C357.25+60.4763+354.645+66.3044+354.645+66.3044L312.886+46.7943" fill="#fdb92e" stroke-linecap="butt" opacity="1" stroke-linejoin="round"/>
<path stroke="#010101" stroke-width="3.1" d="M207.243+79.4804C207.097+73.3101+197.606+56.8134+185.744+53.2098C172.624+49.2238+165.299+51.0836+155.928+60.2245C146.558+69.3655+144.457+82.96+148.263+89.7736C149.98+92.8486+154.891+101.801+162.884+106.545C172.602+112.314+187.705+107.619+190.201+107.112C192.331+106.679+196.417+99.0759+199.534+92.2105C203.073+84.4158+207.435+79.1596+207.435+79.1596" fill="#fdb92e" stroke-linecap="butt" opacity="1" stroke-linejoin="round"/>
<path stroke="#010101" stroke-width="3.1" d="M123.299+327.599C118.45+320.066+121.529+309.277+128.965+306.612C136.4+303.947+154.403+306.28+159.579+302.387C164.754+298.494+190.75+287.1+190.783+283.015C190.815+278.93+172.027+282.435+167.049+275.629C163.172+270.328+168.005+255.962+173.546+247.547C179.371+238.7+182.037+237.721+186.784+233.808C188.963+232.012+204.686+250.388+214.622+259.097C223.597+266.964+247.836+266.496+262.922+271.847C278.221+277.273+312.551+291.008+318.488+292.821C324.425+294.635+341.304+298.262+345.168+296.789C349.033+295.316+359.732+288.532+366.128+280.628C372.523+272.723+384.867+256.946+390.261+249.157C395.656+241.367+401.031+233.438+404.131+226.305C407.232+219.172+409.98+217.17+413.514+216.415C417.047+215.659+426.976+223.771+432.402+231.456C437.828+239.142+443.279+243.692+438.933+248.164C434.586+252.637+425.239+257.369+431.765+262.165C442.161+269.806+448.623+277.159+456.055+279.29C463.511+281.429+471.937+278.341+482.558+283.427C490.957+287.449+492.282+306.495+489.666+312.402C488.101+315.937+485.294+326.774+481.159+335.606C477.12+344.232+473.802+347.567+470.449+353.335C468.217+357.176+472.492+363.986+473.631+370.81C474.894+378.368+473.106+385.884+471.716+388.085C469.07+392.272+462.997+399.13+461.485+395.27C459.972+391.411+452.617+371.765+447.318+367.077C442.019+362.389+434.14+356.912+423.601+354.619C407.181+351.045+374.654+367.654+365.619+371.923C356.583+376.192+311.328+397.437+305.842+399.513C300.357+401.588+277.823+410.433+271.715+413.971C265.607+417.509+240.876+433.857+228.376+432.576C215.053+431.21+201.379+396.223+193.86+381.623C187.612+369.489+175.105+336.961+165.888+330.708C153.762+322.481+126.578+332.692+123.299+327.599Z" fill="#ed3055" stroke-linecap="butt" opacity="1" stroke-linejoin="round"/>
<path d="M226.158+100.214C227.983+99.9554+231.861+99.1377+231.574+100.867C231.287+102.597+229.838+101.951+225.802+105.2C221.766+108.45+220.633+108.845+217.998+112.878C214.059+118.908+212.268+124.276+212.268+124.276C212.268+124.276+209.276+115.027+211.418+111.058C214.196+105.91+223.185+95.8158+226.016+95.109C228.847+94.4022+224.333+100.473+226.158+100.214Z" opacity="1" fill="#010101"/>
<path d="M314.597+67.5283C314.597+67.5283+322.311+66.5654+328.028+67.9203C333.744+69.2752+338.571+70.5694+340.878+72.2102C344.569+74.8346+345.124+81.9309+345.124+81.9309C345.124+81.9309+341.141+78.4852+336.343+76.4922C332.878+75.0527+314.119+74.7733+314.119+74.7733" opacity="1" fill="#010101"/>
<path d="M272.323+152.722C272.323+152.722+284.187+146.989+287.961+145.189C291.789+143.362+298.517+141.996+302.419+141.602C307.832+141.056+320.312+141.096+320.312+141.096C320.312+141.096+311.447+138.3+307.29+138.177C303.514+138.066+293.481+137.274+286.523+140.835C279.565+144.397+272.323+152.722+272.323+152.722Z" opacity="1" fill="#010101"/>
<path d="M279.93+164.654C280.38+158.323+288.043+154.287+291.6+152.779C295.157+151.271+299.337+149.673+305.011+149.364C310.686+149.054+319.418+147.927+321.113+153.108C322.718+158.013+318.601+170.624+314.674+174.138C310.746+177.652+302.692+179.296+297.376+179.91C289.89+180.774+279.41+171.976+279.93+164.654Z" opacity="1" fill="#010101"/>
<path d="M343.627+134.139C345.293+132.857+352.091+128.808+348.855+128.422C346.097+128.094+347.435+125.964+344.648+123.422C341.861+120.881+342.162+119.156+338.054+119.843C333.945+120.531+333.695+124.919+334.103+127.946C334.511+130.972+335.488+134.795+334.242+137.664C333.052+140.403+341.961+135.422+343.627+134.139Z" opacity="1" fill="#010101"/>
<path d="M235.852+157.16C236.261+155.484+234.541+155.254+234.778+152.204C235.015+149.154+234.689+149.709+235.721+147.042C236.752+144.376+234.95+142.921+238.864+142.481C242.777+142.04+247.377+143.987+248.134+148.422C248.891+152.857+248.876+155.518+248.876+155.518C248.876+155.518+251.094+156.566+252.188+157.024C253.282+157.481+250.123+159.247+248.076+159.319C246.028+159.39+239.71+160.068+237.129+161.024C234.549+161.98+230.975+161.552+232.061+160.739C233.148+159.926+235.443+158.837+235.852+157.16Z" opacity="1" fill="#010101"/>
<path d="M243.559+207.025C241.021+203.8+255.292+195.738+256.462+198.394C257.632+201.05+252.457+202.861+252.457+202.861C252.457+202.861+261.915+211.669+264.15+213.407C264.975+214.048+275.807+220.287+282.469+222.814C289.593+225.517+292.047+226.817+301.098+226.402C313.408+225.838+313.54+225.839+322.694+222.868C332.643+219.638+336.888+218.349+343.165+210.988C350.838+201.992+356.176+188.729+357.447+178.683C358.456+170.695+358.735+166.387+358.735+166.387C358.735+166.387+351.673+165.778+352.017+162.497C352.446+158.398+369.778+158.668+369.486+162.106C369.173+165.797+362.707+166.022+362.707+166.022C362.707+166.022+361.678+178.981+360.701+185.457C359.724+191.933+358.108+195.493+356.884+199.585C355.661+203.677+352.757+209.052+348.43+214.47C345.49+218.152+347.299+222.452+345.402+229.266C343.087+237.584+339.381+242.304+333.893+245.716C327.377+249.766+319.427+252.595+312.425+249.78C305.038+246.811+299.243+243.457+293.856+238.518C288.47+233.58+287.959+231.326+282.823+228.242C278.946+225.915+272.399+224.455+260.423+216.289C250.343+209.416+249.53+204.955+249.53+204.955" opacity="1" fill="#010101"/>
<path d="M292.159+230.669C292.159+230.669+300.532+230.236+306.938+229.638C313.344+229.041+319.837+229.263+324.683+227.255C329.529+225.248+342.741+220.402+342.741+220.402C342.741+220.402+344.6+227.752+342.209+232.568C339.818+237.384+337.715+239.059+335.764+239.432C333.142+239.933+329.257+237.988+325.905+237.497C322.121+236.943+318.884+237.848+316.412+238.792C310.937+240.883+308.695+244.948+307.021+244.476C303.502+243.484+300.444+240.514+298.433+238.587" opacity="1" fill="#b73531"/>
<path d="M335.911+258.17C331.766+258.456+338.846+254.442+342.856+250.021C346.194+246.342+344.768+242.538+347.428+240.794C351.818+237.918+351.865+248.636+346.14+253.09" opacity="1" fill="#010101"/>
<path stroke="#010101" stroke-width="2.35" d="M308.199+245.802C310.426+242.953+313.054+241.927+315.427+240.846C317.801+239.764+321.864+238.586+327.316+238.38C332.769+238.174+337.236+240.022+337.236+240.022C337.236+240.022+334.152+244.953+331.624+246.134C329.095+247.315+323.19+249.891+318.408+249.777C313.627+249.663+305.972+248.652+308.199+245.802Z" fill="#f7ad8f" stroke-linecap="round" opacity="1" stroke-linejoin="round"/>
</g>
</g>
</svg>
