<?xml version="1.0" encoding="UTF-8" standalone="no"?> <!-- Created with Vectornator for iOS (http://vectornator.io/) --><!DOCTYPE svg PUBLIC "-//W3C//DTD SVG 1.1//EN" "http://www.w3.org/Graphics/SVG/1.1/DTD/svg11.dtd">
<svg height="100%" style="fill-rule:nonzero;clip-rule:evenodd;stroke-linecap:round;stroke-linejoin:round;" xmlns:xlink="http://www.w3.org/1999/xlink" xmlns="http://www.w3.org/2000/svg" xml:space="preserve" width="100%" xmlns:vectornator="http://vectornator.io" version="1.1" viewBox="0 0 841.995 595.35">
<metadata>
<vectornator:setting key="DimensionsVisible" value="1"/>
<vectornator:setting key="PencilOnly" value="1"/>
<vectornator:setting key="SnapToPoints" value="0"/>
<vectornator:setting key="OutlineMode" value="0"/>
<vectornator:setting key="CMYKEnabledKey" value="0"/>
<vectornator:setting key="RulersVisible" value="1"/>
<vectornator:setting key="SnapToEdges" value="1"/>
<vectornator:setting key="GuidesVisible" value="1"/>
<vectornator:setting key="DisplayWhiteBackground" value="0"/>
<vectornator:setting key="doHistoryDisabled" value="0"/>
<vectornator:setting key="SnapToGuides" value="1"/>
<vectornator:setting key="TimeLapseWatermarkDisabled" value="0"/>
<vectornator:setting key="Units" value="Millimeters"/>
<vectornator:setting key="DynamicGuides" value="1"/>
<vectornator:setting key="IsolateActiveLayer" value="0"/>
<vectornator:setting key="SnapToGrid" value="1"/>
</metadata>
<defs/>
<g id="Layer 1" vectornator:layerName="Layer 1">
<g opacity="1">
<path stroke="#000000" stroke-width="0.213729" d="M185.874+588.33C165.02+587.564+154.164+585.696+148.399+581.882C144.905+579.571+140.693+574.897+138.839+571.274C136.004+565.736+135.728+557.218+135.727+475.271C135.727+366.252+136.396+356.804+144.726+348.178C151.473+341.191+162.982+338.614+192.611+337.455C216.842+336.507+244.578+337.962+255.549+340.757C260.906+342.121+264.082+343.866+267.769+347.471C272.746+352.336+274.76+358.306+276.502+373.353C278.384+389.606+278.846+403.293+279.188+452.969C279.714+529.246+278.11+561.45+273.232+572.608C270.04+579.907+262.91+584.156+250.389+586.218C238.584+588.163+208.302+589.154+185.874+588.33ZM229.654+561.166C235.016+560.461+238.145+558.962+241.166+555.65C244.944+551.508+246.157+548.389+246.157+542.814C246.156+532.469+242.168+528.244+230.398+526.12C227.348+525.57+219.966+525.326+206.407+525.326C178.889+525.326+176.05+526+172.125+533.467C169.178+539.074+168.431+543.768+169.722+548.577C171.517+555.264+174.702+558.895+180.084+560.388C186.786+562.248+217.725+562.733+229.654+561.166ZM224.207+508.767C233.849+508.006+235.996+507.357+239.643+504.1C245.421+498.942+247.59+491.927+245.646+484.685C244.343+479.83+242.968+478.023+239.017+475.97C233.155+472.925+228.012+472.333+207.355+472.324C179.825+472.315+175.936+473.206+172.117+480.408C168.208+487.779+168.194+494.8+172.074+501.338C175.116+506.464+178.173+507.847+188.387+508.717C196.223+509.385+216.036+509.413+224.207+508.767L224.207+508.767ZM217.786+452.687C231.307+452.003+233.688+451.446+237.67+448.028C243.59+442.948+245.962+435.024+243.744+427.739C242.454+423.505+239.877+420.622+235.931+419.002C230.126+416.618+225.161+416.171+204.512+416.171C176.835+416.171+174.229+416.807+170.078+424.575C167.983+428.496+167.867+429.034+167.867+434.805C167.867+439.973+168.083+441.283+169.293+443.443C173.295+450.593+176.542+451.975+190.909+452.644C204.488+453.276+206.062+453.279+217.786+452.689L217.786+452.687ZM229.152+397.162C231.237+396.786+234.106+395.834+235.529+395.047C245.132+389.733+247.745+373.796+240.145+366.895C235.064+362.281+223.084+360.589+199.773+361.195C175.162+361.834+172.071+363.025+168.709+373.164C165.359+383.264+169.948+394.427+178.335+396.582C179.757+396.948+183.67+397.484+187.03+397.774C195.025+398.463+224.296+398.038+229.152+397.162Z" fill="#000000" stroke-linecap="butt" opacity="1" stroke-linejoin="miter"/>
<path stroke="#000000" stroke-width="0.213729" d="M620.504+589.221C599.65+588.455+588.794+586.587+583.029+582.774C579.535+580.463+575.323+575.789+573.469+572.166C570.634+566.627+570.358+558.109+570.358+476.163C570.357+367.144+571.026+357.695+579.356+349.07C586.103+342.082+597.612+339.505+627.241+338.346C651.472+337.399+679.208+338.854+690.179+341.648C695.536+343.013+698.712+344.757+702.399+348.362C707.376+353.228+709.39+359.198+711.132+374.245C713.014+390.498+713.476+404.185+713.818+453.86C714.344+530.137+712.74+562.341+707.862+573.499C704.67+580.798+697.54+585.047+685.019+587.11C673.214+589.054+642.932+590.046+620.504+589.221ZM664.284+562.057C669.646+561.352+672.775+559.853+675.796+556.542C679.574+552.4+680.787+549.281+680.787+543.706C680.786+533.36+676.798+529.135+665.028+527.012C661.978+526.462+654.596+526.217+641.037+526.217C613.519+526.217+610.68+526.891+606.755+534.358C603.808+539.965+603.061+544.659+604.352+549.468C606.147+556.156+609.332+559.786+614.714+561.28C621.416+563.139+652.355+563.624+664.284+562.057ZM658.837+509.659C668.479+508.897+670.626+508.248+674.273+504.992C680.051+499.833+682.22+492.819+680.276+485.576C678.973+480.721+677.598+478.914+673.647+476.861C667.785+473.816+662.642+473.224+641.985+473.216C614.455+473.207+610.566+474.097+606.747+481.299C602.838+488.671+602.824+495.691+606.704+502.229C609.746+507.356+612.803+508.738+623.017+509.609C630.853+510.276+650.666+510.304+658.838+509.658L658.837+509.659ZM652.416+453.578C665.937+452.895+668.318+452.337+672.3+448.919C678.22+443.839+680.592+435.915+678.374+428.63C677.084+424.396+674.507+421.513+670.561+419.893C664.756+417.51+659.791+417.062+639.142+417.062C611.465+417.062+608.859+417.698+604.709+425.466C602.613+429.388+602.497+429.925+602.497+435.697C602.497+440.864+602.713+442.174+603.923+444.334C607.925+451.484+611.172+452.866+625.539+453.535C639.118+454.168+640.692+454.17+652.416+453.58L652.416+453.578ZM663.782+398.053C665.867+397.677+668.736+396.726+670.159+395.938C679.762+390.624+682.375+374.688+674.775+367.786C669.694+363.172+657.715+361.481+634.403+362.086C609.792+362.725+606.701+363.917+603.339+374.055C599.989+384.156+604.578+395.318+612.965+397.474C614.387+397.839+618.3+398.376+621.66+398.665C629.655+399.354+658.926+398.929+663.782+398.053Z" fill="#000000" stroke-linecap="butt" opacity="1" stroke-linejoin="miter"/>
<path stroke="#000000" stroke-width="0.427457" d="M267.932+383.636C268.261+256.154+268.373+250.471+270.657+246.084C275.425+236.922+269.333+237.434+378.208+237.047C488.06+236.655+564.891+238.059+572.738+240.601C576.134+241.701+578.555+243.566+580.32+246.439C582.885+250.617+582.915+252.034+583.259+383.636L583.607+516.612L425.598+516.612L267.589+516.612L267.932+383.636ZM535.421+336.927C537.786+336.28+541.052+334.557+542.678+333.099C545.61+330.47+545.635+330.218+545.635+302.973C545.635+284.997+545.138+274.458+544.196+272.486C541.455+266.743+536.036+265.519+510.393+264.848C484.449+264.169+478.48+265.01+473.528+270.042L470.451+273.168L470.451+301.388L470.451+329.607L473.941+332.938C476.641+335.516+479.07+336.436+484.681+337.01C496.73+338.24+530.828+338.185+535.421+336.927ZM430.296+330.327C437.514+326.159+438.493+316.907+432.303+311.353L429.184+308.555L385.374+308.164C331.711+307.686+321.5+308.298+317.369+312.241C311.199+318.131+315.695+330.664+324.551+332.26C326.958+332.694+350.82+332.965+377.576+332.863C423.37+332.688+426.464+332.539+430.296+330.327ZM430.296+294.143C437.514+289.975+438.493+280.723+432.303+275.169L429.184+272.371L385.374+271.98C331.711+271.502+321.5+272.114+317.369+276.057C311.199+281.947+315.695+294.48+324.551+296.076C326.958+296.51+350.82+296.782+377.576+296.679C423.37+296.504+426.464+296.355+430.296+294.143Z" fill="#000000" stroke-linecap="butt" opacity="1" stroke-linejoin="miter"/>
<path stroke="#000000" stroke-width="0.232399" d="M393.413+190.441C393.531+163.457+393.757+140.682+393.915+139.829C394.313+137.685+397.115+134.073+399.487+132.647C400.834+131.837+403.745+131.327+408.629+131.047C414.702+130.699+415.929+130.428+416.677+129.271C417.409+128.139+417.559+121.116+417.551+88.2574C417.546+66.3278+417.29+48.161+416.979+47.6058C416.655+47.0272+414.198+46.2029+411.176+45.6594C406.885+44.8877+405.61+44.3491+404.143+42.691C402.07+40.348+400.83+35.5295+400.203+27.3794L399.777+21.8488L426.345+21.8488C451.228+21.8488+452.912+21.9279+452.907+23.0977C452.888+27.5066+451.422+37.5675+450.427+40.1109C448.864+44.1052+446.957+45.3915+441.44+46.1747C438.855+46.5415+436.438+47.302+435.891+47.9209C435.049+48.8728+434.891+54.0131+434.695+86.9333C434.451+127.836+434.577+129.799+437.521+131.065C438.393+131.44+441.654+131.746+444.767+131.746C451.501+131.746+453.649+132.615+456.858+136.634L459.225+139.6L459.225+165.885C459.225+180.342+459.413+202.82+459.642+215.837L460.06+239.502L426.629+239.502L393.198+239.502L393.413+190.441Z" fill="#000000" stroke-linecap="butt" opacity="1" stroke-linejoin="miter"/>
<path d="M296.899+124.963C278.69+122.859+263.323+113.664+254.171+99.3963C249.495+92.1067+246.403+83.9006+245.208+75.6076C244.737+72.3399+244.68+63.9797+245.106+60.7891C245.862+55.1358+247.247+50.6886+249.673+46.1221C253.292+39.3131+257.563+33.8004+263.26+28.5862C270.563+21.9016+277.735+17.6198+287.2+14.2916C293.608+12.0386+297.079+11.6529+315.046+11.1973C328.754+10.8498+397.23+10.8144+397.939+11.1545C398.235+11.2963+399.12+11.655+399.905+11.9517C403.601+13.3471+405.783+15.5907+406.655+18.8922C407.124+20.6653+407.013+26.5489+406.431+30.8323C405.046+41.0316+402.443+52.0639+399.414+60.5758C396.382+69.0968+392.798+75.1554+385.098+84.7757C375.587+96.6586+368.398+102.532+353.123+110.901C339.56+118.331+330.891+121.905+322.418+123.56C314.569+125.093+303.36+125.71+296.899+124.963ZM311.919+85.3066C316.113+84.0244+319.252+81.9333+321.769+78.7438C323.32+76.7793+324.182+75.2319+325.025+72.8983C325.597+71.3133+325.626+71.0351+325.64+66.8657C325.654+62.8576+325.611+62.363+325.133+60.9062C322.99+54.3813+317.806+49.5756+311.046+47.8479C308.623+47.2286+304.235+47.2384+301.755+47.8687C294.359+49.7487+288.778+55.478+287.229+62.7827C286.758+65.0023+286.874+69.6653+287.451+71.7698C288.05+73.9522+290.053+77.6434+291.589+79.3946C294.375+82.5712+298.233+84.8217+302.426+85.7155C304.922+86.2477+309.484+86.0513+311.919+85.3066Z" opacity="1" fill="#000000"/>
<path d="M547.419+126.022C538.279+125.57+529.335+124.055+523.158+121.911C514.138+118.781+498.711+111.1+488.894+104.851C479.928+99.1434+474.182+93.7657+465.391+82.854C458.643+74.4785+455.317+68.619+452.137+59.5102C447.081+45.0263+443.707+25.3628+445.298+19.6581C446.306+16.046+448.73+13.8644+453.376+12.3868L455.443+11.7297L490.039+11.7405C537.676+11.7554+552.915+12.0605+561.268+13.1674C566.882+13.9114+576.19+17.3864+582.46+21.0793C593.734+27.7192+602.822+37.0613+608.436+47.7802C611.694+53.9999+613.015+60.0313+613.015+68.6753C613.015+75.4252+612.215+80.4091+610.192+86.2656C604.949+101.442+594.578+113.124+580.478+119.738C570.306+124.509+559.265+126.608+547.419+126.022ZM549.876+83.9142C551.533+83.4819+554.522+82.1646+555.902+81.258C559.974+78.5841+563.114+74.0399+564.227+69.2118C564.757+66.9142+564.693+62.8315+564.09+60.4664C562.552+54.4285+558.002+49.2924+552.197+47.0412C549.05+45.8207+544.382+45.4053+541.164+46.0595C533.869+47.543+527.918+53.1433+526.037+60.2955C525.344+62.931+525.352+67.5834+526.056+70.0611C527.076+73.6624+529.091+76.8772+531.953+79.4724C534.572+81.8472+537.53+83.3342+541.193+84.1183C543.14+84.5349+547.928+84.4225+549.877+83.9144L549.876+83.9142Z" opacity="1" fill="#000000"/>
</g>
<g opacity="1">
<g opacity="1">
<g opacity="1">
<path stroke="#010101" stroke-width="1.28422" d="M504.742+570.007C502.411+569.93+505.614+560.836+505.919+559.704C508.453+550.281+511.723+541.014+513.774+531.472C514.356+528.766+515.008+525.85+515.099+523.074C515.102+522.976+515.389+521.86+514.713+522.006C513.153+522.343+509.853+535.706+509.796+537.461C509.592+543.733+511.654+547.966+517.347+550.794C519.433+551.831+522.151+552.951+523.514+555.007C526.135+558.961+523.86+565.991+519.932+568.185C515.919+570.427+519.15+562.353+519.515+561.629C522.458+555.802+525.736+550.177+529.519+544.864C530.226+543.869+532.236+540.162+531.398+538.805C530.829+537.885+529.893+541.402+529.832+541.708C529.12+545.274+528.551+548.757+528.432+552.425C528.408+553.144+528.573+556.44+529.77+556.479C532.424+556.567+530.832+541.41+532.378+540.948C532.806+540.82+533.093+541.797+533.184+542.029C533.662+543.26+535.897+552.82+537.479+552.09C539.344+551.228+541.241+540.264+541.494+538.504C541.706+537.034+542.247+535.572+542.478+534.105C542.567+533.545+542.762+531.858+542.743+532.425C542.573+537.651+539.654+551.27+548.494+542.955C549.021+542.46+549.425+542.021+549.809+541.31" fill="none" stroke-linecap="round" opacity="1" stroke-linejoin="round"/>
<path stroke="#010101" stroke-width="1.28422" d="M530.415+581.826C529.494+579.815+534.761+569.259+535.927+567.445C542.179+557.718+550.065+549.961+559.207+543.097C561.572+541.321+564.493+539.05+567.532+539.15" fill="none" stroke-linecap="round" opacity="1" stroke-linejoin="round"/>
<path stroke="#010101" stroke-width="1.28422" d="M541.989+526.194C542.062+524.507+540.13+524.134+540.372+526.123C540.557+527.645+542.312+528.379+542.871+529.634" fill="none" stroke-linecap="round" opacity="1" stroke-linejoin="round"/>
<path stroke="#010101" stroke-width="1.28422" d="M541.998+525.973C542.014+525.622+542.508+523.285+543.468+524.336C544.01+524.929+543.695+528.96+543.312+529.653" fill="none" stroke-linecap="round" opacity="1" stroke-linejoin="round"/>
<path stroke="#010101" stroke-width="1.28422" d="M552.335+557.628L552.191+557.548L552.111+557.692L552.102+557.914L552.245+557.994L552.396+557.926L552.549+557.785L552.559+557.564L552.491+557.413L552.341+557.48L552.188+557.622L552.188+557.622" fill="none" stroke-linecap="round" opacity="1" stroke-linejoin="round"/>
<path stroke="#010101" stroke-width="1.28422" d="M557.837+552.988L557.693+552.908L557.613+553.052L557.604+553.273L557.748+553.354L557.898+553.286L558.051+553.145L558.061+552.924L557.994+552.773L557.843+552.84L557.69+552.981L557.69+552.981" fill="none" stroke-linecap="round" opacity="1" stroke-linejoin="round"/>
</g>
<path stroke="#010101" stroke-width="1.28422" d="M504.742+570.007C502.411+569.93+505.614+560.836+505.919+559.704C508.453+550.281+511.723+541.014+513.774+531.472C514.356+528.766+515.008+525.85+515.099+523.074C515.102+522.976+515.389+521.86+514.713+522.006C513.153+522.343+509.853+535.706+509.796+537.461C509.592+543.733+511.654+547.966+517.347+550.794C519.433+551.831+522.151+552.951+523.514+555.007C526.135+558.961+523.86+565.991+519.932+568.185C515.919+570.427+519.15+562.353+519.515+561.629C522.458+555.802+525.736+550.177+529.519+544.864C530.226+543.869+532.236+540.162+531.398+538.805C530.829+537.885+529.893+541.402+529.832+541.708C529.12+545.274+528.551+548.757+528.432+552.425C528.408+553.144+528.573+556.44+529.77+556.479C532.424+556.567+530.832+541.41+532.378+540.948C532.806+540.82+533.093+541.797+533.184+542.029C533.662+543.26+535.897+552.82+537.479+552.09C539.344+551.228+541.241+540.264+541.494+538.504C541.706+537.034+542.247+535.572+542.478+534.105C542.567+533.545+542.762+531.858+542.743+532.425C542.573+537.651+539.654+551.27+548.494+542.955C549.021+542.46+549.425+542.021+549.809+541.31" fill="none" stroke-linecap="round" opacity="1" stroke-linejoin="round"/>
</g>
<path stroke="#010101" stroke-width="1.28422" d="M504.742+570.007C502.411+569.93+505.614+560.836+505.919+559.704C508.453+550.281+511.723+541.014+513.774+531.472C514.356+528.766+515.008+525.85+515.099+523.074C515.102+522.976+515.389+521.86+514.713+522.006C513.153+522.343+509.853+535.706+509.796+537.461C509.592+543.733+511.654+547.966+517.347+550.794C519.433+551.831+522.151+552.951+523.514+555.007C526.135+558.961+523.86+565.991+519.932+568.185C515.919+570.427+519.15+562.353+519.515+561.629C522.458+555.802+525.736+550.177+529.519+544.864C530.226+543.869+532.236+540.162+531.398+538.805C530.829+537.885+529.893+541.402+529.832+541.708C529.12+545.274+528.551+548.757+528.432+552.425C528.408+553.144+528.573+556.44+529.77+556.479C532.424+556.567+530.832+541.41+532.378+540.948C532.806+540.82+533.093+541.797+533.184+542.029C533.662+543.26+535.897+552.82+537.479+552.09C539.344+551.228+541.241+540.264+541.494+538.504C541.706+537.034+542.247+535.572+542.478+534.105C542.567+533.545+542.762+531.858+542.743+532.425C542.573+537.651+539.654+551.27+548.494+542.955C549.021+542.46+549.425+542.021+549.809+541.31" fill="none" stroke-linecap="round" opacity="1" stroke-linejoin="round"/>
</g>
</g>
</svg>
