<?xml version="1.0" encoding="UTF-8" standalone="no"?> <!-- Created with Vectornator for iOS (http://vectornator.io/) --><!DOCTYPE svg PUBLIC "-//W3C//DTD SVG 1.1//EN" "http://www.w3.org/Graphics/SVG/1.1/DTD/svg11.dtd">
<svg height="100%" style="fill-rule:evenodd;clip-rule:evenodd;stroke-linecap:round;stroke-linejoin:round;" xmlns:xlink="http://www.w3.org/1999/xlink" xmlns="http://www.w3.org/2000/svg" xml:space="preserve" width="100%" xmlns:vectornator="http://vectornator.io" version="1.1" viewBox="0 0 841.995 595.35">
<metadata>
<vectornator:setting key="DisplayWhiteBackground" value="0"/>
<vectornator:setting key="RulersVisible" value="1"/>
<vectornator:setting key="Units" value="Millimeters"/>
<vectornator:setting key="New" value="1"/>
<vectornator:setting key="DynamicGuides" value="1"/>
<vectornator:setting key="GuidesVisible" value="1"/>
<vectornator:setting key="SnapToPoints" value="0"/>
<vectornator:setting key="SnapToGrid" value="1"/>
<vectornator:setting key="SnapToGuides" value="1"/>
<vectornator:setting key="DimensionsVisible" value="1"/>
<vectornator:setting key="SnapToEdges" value="1"/>
</metadata>
<defs/>
<g id="Layer 1" vectornator:layerName="Layer 1">
<text x="0" font-family="Futura-Medium" y="0" text-anchor="start" vectornator:text="Text" fill="#f2f2f2" font-size="46" vectornator:width="20" opacity="1" transform="matrix(1.11772 0.198298 -0.198298 1.11772 263.999 371.228)"/>
<path d="M389.726+371.304C393.71+366.871+399.575+365.646+402.825+368.568C406.075+371.489+405.479+377.45+401.495+381.883C397.51+386.315+391.646+387.54+388.396+384.619C385.146+381.698+385.742+375.736+389.726+371.304Z" opacity="1" fill="#f2f2f2"/>
<path d="M176.106+376.304C180.09+371.871+185.955+370.646+189.205+373.568C192.455+376.489+191.859+382.45+187.875+386.883C183.89+391.315+178.026+392.54+174.776+389.619C171.526+386.698+172.122+380.736+176.106+376.304Z" opacity="1" fill="#f2f2f2"/>
<path d="M659.632+281.824C663.616+277.391+669.481+276.166+672.73+279.087C675.98+282.009+675.385+287.97+671.401+292.402C667.416+296.835+661.552+298.06+658.302+295.139C655.052+292.218+655.648+286.256+659.632+281.824Z" opacity="1" fill="#f2f2f2"/>
<path d="M767.306+290.762C771.29+286.33+777.154+285.104+780.404+288.026C783.654+290.947+783.059+296.908+779.074+301.341C775.09+305.773+769.226+306.998+765.976+304.077C762.726+301.156+763.321+295.195+767.306+290.762Z" opacity="1" fill="#f2f2f2"/>
<path d="M532.182+233.973C524.524+233.88+517.337+233.943+511.146+234.15C489.669+234.869+474.302+236.185+452.508+239.968C434.633+243.071+442.041+248.834+453.217+250.823C458.923+251.839+491.76+248.261+502.455+248.305C516.684+248.362+536.235+248.322+544.634+247.666C568.522+245.801+526.293+278.699+515.439+291.086C504.584+303.473+491.008+315.221+476.736+331.385C460.205+350.109+458.79+346.726+436.615+372.96C418.883+393.939+489.051+400.25+531.863+385.199C553.243+377.683+581.156+351.284+588.586+343.127C596.016+334.969+612.19+316.193+622.641+293.25C630.818+275.301+629.372+241.723+600.293+238.053C582.433+235.798+555.157+234.251+532.182+233.973ZM564.677+244.154C569.487+243.626+576.666+244.963+581.208+245.396C590.844+246.313+603.053+249.476+608.203+255.293C618.027+266.388+613.223+284.761+599.477+309.391C584.427+336.356+570.869+344.72+550.664+361.041C541.214+368.675+521.113+378.269+503.094+380.694C488.68+382.633+471.133+385.624+459.07+382.325C438.611+376.73+477.671+345.288+488.549+334.116L532.218+288.745C550.894+272.981+567.004+260.647+562.477+254.229C557.449+247.1+559.866+244.682+564.677+244.154Z" opacity="1" fill="#f2f2f2"/>
<path d="M623.704+324.434C613.35+335.337+606.901+342.257+598.501+356.127C590.1+369.997+586.557+373.768+588.864+386.625C591.023+398.656+603.607+393.339+614.588+388.095C623.279+383.944+629.792+377.67+633.347+377.67C638.468+377.67+634.317+390.719+643.287+392.128C654.67+393.916+669.185+382.805+677.582+372.374C686.788+360.939+695.435+351.893+703.218+343.193C708.816+336.936+735.61+311.014+727.231+306.884C721.813+304.213+719.931+300.33+710.163+312.735C700.395+325.14+690.526+340.858+680.466+351.798C670.405+362.738+664.434+374.942+650.907+377.67C643.65+379.133+651.978+366.514+657.949+358.367C667.071+345.922+670.269+341.701+676.419+332.457C681.144+325.354+693.835+304.111+685.744+305.043C678.538+305.873+676.389+311.196+665.742+327.215C655.095+343.234+652.479+348.124+646.325+355.45C640.171+362.776+630.353+369.667+621.884+374.773C614.644+379.137+610.186+384.345+603.573+382.108C597.371+380.011+606.367+362.025+616.606+350.087C623.257+342.331+637.411+328.17+641.797+322.312C646.391+316.178+651.179+303.967+644.927+301.525" opacity="1" fill="#f2f2f2"/>
<path d="M754.093+312.856C751.218+315.657+719.415+346.419+711.871+357.282C700.925+373.046+691.581+383.388+693.826+391.812C695.872+399.488+712.4+397.773+724.751+395.111C735.71+392.749+753.379+378.722+764.892+367.163C774.449+357.569+775.876+349.506+761.065+358.866C751.115+365.154+713.231+395.774+708.699+388.514C704.168+381.254+721.635+362.189+731.254+351.475C736.664+345.45+745.088+336.986+754.184+327.243C757.959+323.201+763.29+303.895+754.093+312.856Z" opacity="1" fill="#f2f2f2"/>
<path d="M409.121+238.744C405.88+238.86+402.609+239.242+399.47+239.634C388.533+241+378.765+243.467+367.814+246.205C356.862+248.943+347.211+252.125+336.26+257.601C325.309+263.077+314.357+270.88+306.144+276.355C297.93+281.831+284.91+287.791+279.005+286.177C272.04+284.274+259.84+283.439+251.626+280.702C243.413+277.964+232.461+275.226+224.248+272.488C216.034+269.75+211.377+268.705+207.444+268.416C203.512+268.126+193.843+265.142+191.394+272.488C188.656+280.702+227.974+286.425+238.844+288.305C249.802+290.199+275.035+296.65+277.139+301.592C278.601+305.026+267.401+313.544+258.417+323.666C247.632+335.818+238.324+349.91+234.978+355.317C229.986+363.383+224.445+376.463+226.986+384.74C230.7+396.84+256.554+396.127+267.685+394.213C283.769+391.448+301.61+382.875+314.856+374.77C329.563+365.771+351.6+338.173+344.713+338.196C337.926+338.219+304.838+370.748+292.897+375.788C270.974+385.04+248.244+390.128+243.122+379.991C239.09+372.014+247.075+356.34+251.654+349.521C257.39+340.98+268.478+330.086+273.954+324.611C279.429+319.135+287.064+310.007+293.447+308.696C301.184+307.107+316.166+308.141+322.81+308.08C330.618+308.008+345.844+307.362+355.665+305.342C366.428+303.128+380.992+299.43+391.53+295.383C401.554+291.534+418.635+283.439+426.848+275.226C432.324+269.75+435.99+259.751+432.324+250.585C428.217+240.318+418.844+238.395+409.121+238.744ZM409.029+250.011C414.938+249.901+420.205+250.593+423.266+252.373C429.003+255.708+420.802+261.457+414.539+266.746C406.19+273.796+391.394+281.331+386.544+283.755C375.593+289.231+365.068+291.236+354.477+294.022C342.582+297.152+324.867+300.146+316.49+293.44C306.93+285.789+346.162+270.021+355.059+266.301C364.167+262.494+379.583+255.404+390.959+252.475C396.564+251.032+403.12+250.122+409.029+250.011Z" opacity="1" fill="#f2f2f2"/>
<path d="M183.564+242.517C173.645+242.858+144.429+253.585+136.156+256.937C125.079+261.425+105.748+270.77+100.219+273.536C94.6906+276.303+78.4847+287.161+70.1917+292.694C61.8986+298.227+45.3522+308.984+39.4038+315.033C32.8341+321.715+32.108+327.001+33.9442+332.22C36.6516+339.915+54.6063+353.336+57.7867+358.64C61.5058+364.843+52.4642+367.294+46.1073+371.85C38.9813+376.957+22.427+390.586+25.3402+395.677C28.2534+400.767+41.0998+401.385+48.8874+397.41C52.1158+395.763+60.7885+392.595+67.3161+387.132C73.8437+381.668+76.7565+378.411+80.8689+373.13C84.6847+368.23+82.6311+361.012+89.7148+357.084C95.3117+353.98+111.141+347.829+116.46+345.465C121.779+343.101+140.691+335.038+135.672+332.704C133.401+331.648+118.533+336.592+109.065+340.381C99.5977+344.171+86.2081+352.434+80.8689+350.998C75.1039+349.447+70.7762+349.163+64.2829+345.465C58.9107+342.405+48.4241+336.22+45.6597+327.92C43.9114+322.671+66.7857+305.523+73.5327+301.569C83.1396+295.939+107.253+280.86+117.16+275.99C127.067+271.12+148.02+263.823+158.271+259.704C165.593+256.761+188.454+248.896+190.202+252.395C192.967+257.928+169.848+276.326+163.541+280.951C153.541+288.285+139.738+296.639+130.671+300.78C119.332+305.957+99.4569+312.285+90.7191+312.374C81.978+312.463+80.1799+321.499+83.6333+323.333C87.6338+325.457+113.976+318.285+121.656+314.982C133.405+309.93+161.473+293.644+166.564+290.135C172.976+285.715+179.28+280.176+188.264+271.185C197.248+262.193+202.5+256.937+202.5+251.404C202.5+245.218+191.378+242.248+183.564+242.517ZM66.3788+366.473C69.2636+365.611+72.1849+367.48+70.3795+371.29C68.6824+374.872+60.1361+382.463+57.1063+384.351C52.511+387.215+39.2406+394.193+37.6719+392.122C35.7545+389.59+50.4542+377.994+53.2724+375.411C55.8714+373.03+63.1971+367.424+66.3788+366.473Z" opacity="1" fill="#f2f2f2"/>
</g>
</svg>
