<?xml version="1.0" encoding="UTF-8" standalone="no"?> <!-- Created with Vectornator for iOS (http://vectornator.io/) --><!DOCTYPE svg PUBLIC "-//W3C//DTD SVG 1.1//EN" "http://www.w3.org/Graphics/SVG/1.1/DTD/svg11.dtd">
<svg height="100%" style="fill-rule:nonzero;clip-rule:evenodd;stroke-linecap:round;stroke-linejoin:round;" xmlns:xlink="http://www.w3.org/1999/xlink" xmlns="http://www.w3.org/2000/svg" xml:space="preserve" width="100%" xmlns:vectornator="http://vectornator.io" version="1.1" viewBox="0 0 841.995 595.35">
<metadata>
<vectornator:setting key="DimensionsVisible" value="1"/>
<vectornator:setting key="PencilOnly" value="1"/>
<vectornator:setting key="SnapToPoints" value="0"/>
<vectornator:setting key="OutlineMode" value="0"/>
<vectornator:setting key="CMYKEnabledKey" value="0"/>
<vectornator:setting key="RulersVisible" value="1"/>
<vectornator:setting key="SnapToEdges" value="0"/>
<vectornator:setting key="GuidesVisible" value="1"/>
<vectornator:setting key="DisplayWhiteBackground" value="0"/>
<vectornator:setting key="doHistoryDisabled" value="0"/>
<vectornator:setting key="SnapToGuides" value="0"/>
<vectornator:setting key="TimeLapseWatermarkDisabled" value="0"/>
<vectornator:setting key="Units" value="Millimeters"/>
<vectornator:setting key="DynamicGuides" value="0"/>
<vectornator:setting key="IsolateActiveLayer" value="0"/>
<vectornator:setting key="SnapToGrid" value="0"/>
</metadata>
<defs/>
<g id="Layer 1" vectornator:layerName="Layer 1">
<path stroke="#010101" stroke-width="7.4641" d="M152.776+473.999C131.5+473.302+160.736+390.658+163.514+380.376C186.646+294.745+216.489+210.526+235.207+123.815C240.516+99.2212+249.944+36.4645+243.778+37.7932C229.539+40.8613+199.425+162.295+198.903+178.244C197.036+235.236+215.858+273.708+267.812+299.407C286.851+308.825+311.651+319.007+324.093+337.69C348.018+373.616+327.25+437.501+291.403+457.443C254.776+477.819+284.265+404.444+287.601+397.866C314.456+344.915+344.371+293.793+378.894+245.511C385.354+236.477+403.693+202.79+396.041+190.455C390.852+182.092+382.31+214.051+381.752+216.837C375.255+249.238+370.064+280.89+368.972+314.228C368.758+320.758+370.266+350.709+381.19+351.067C405.408+351.861+390.876+214.124+404.992+209.926C408.894+208.766+411.517+217.644+412.341+219.756C416.707+230.94+437.103+317.816+451.539+311.179C468.566+303.352+485.878+203.712+488.187+187.72C490.116+174.357+495.055+161.074+497.168+147.739C497.974+142.651+499.754+127.327+499.586+132.476C498.03+179.969+471.39+303.73+552.069+228.169C556.874+223.668+560.565+219.681+564.065+213.219" fill="none" stroke-linecap="round" opacity="1" stroke-linejoin="round"/>
<path stroke="#010101" stroke-width="7.4641" d="M387.07+581.401C378.669+563.127+426.738+467.204+437.379+450.718C494.434+362.321+566.402+291.833+649.837+229.454C671.421+213.316+698.077+192.677+725.807+193.585" fill="none" stroke-linecap="round" opacity="1" stroke-linejoin="round"/>
<path stroke="#010101" stroke-width="7.4641" d="M492.699+75.8519C493.365+60.5192+475.733+57.1326+477.944+75.2103C479.635+89.0425+495.72+95.8843+500.814+107.287" fill="none" stroke-linecap="round" opacity="1" stroke-linejoin="round"/>
<path stroke="#010101" stroke-width="7.4641" d="M492.786+73.8398C492.925+70.6546+497.441+49.4132+506.2+58.968C511.141+64.3579+504.312+100.99+500.814+107.287" fill="none" stroke-linecap="round" opacity="1" stroke-linejoin="round"/>
<path stroke="#010101" stroke-width="7.4641" d="M153.182+473.724C131.906+473.027+161.143+390.383+163.92+380.101C187.052+294.47+216.896+210.251+235.613+123.54C239.702+104.599+245.602+37.2128+244.184+37.5182C229.946+40.5863+199.831+162.02+199.309+177.969C197.442+234.961+216.265+273.433+268.218+299.132C287.257+308.55+312.058+318.732+324.5+337.415C348.425+373.341+327.657+437.226+291.809+457.168C255.183+477.544+284.671+404.169+288.007+397.591C314.862+344.64+344.777+293.518+379.301+245.236C385.76+236.202+404.099+202.515+396.447+190.18C391.259+181.817+382.717+213.776+382.158+216.562C375.661+248.963+370.471+280.615+369.379+313.953C369.165+320.483+370.672+350.434+381.597+350.792C405.815+351.586+391.283+213.849+405.398+209.651C409.3+208.491+411.923+217.369+412.748+219.481C417.113+230.665+437.51+317.541+451.946+310.904C468.973+303.077+486.284+203.437+488.593+187.445C490.523+174.082+495.462+160.799+497.574+147.464C498.38+142.376+500.161+127.052+499.992+132.201C498.436+179.694+471.796+303.455+552.475+227.894C557.281+223.393+560.972+219.406+564.472+212.944" fill="none" stroke-linecap="round" opacity="1" stroke-linejoin="round"/>
<path d="M189.32+229.855C189.32+228.451+190.458+227.313+191.862+227.313C193.266+227.313+194.404+228.451+194.404+229.855C194.404+231.258+193.266+232.396+191.862+232.396C190.458+232.396+189.32+231.258+189.32+229.855Z" opacity="1" fill="#ff1414"/>
<path d="M201.771+146.935C201.771+145.532+202.909+144.394+204.313+144.394C205.717+144.394+206.855+145.532+206.855+146.935C206.855+148.339+205.717+149.477+204.313+149.477C202.909+149.477+201.771+148.339+201.771+146.935Z" opacity="1" fill="#ff1414"/>
<path d="M259.933+37.5672C259.933+36.1635+261.071+35.0255+262.475+35.0255C263.879+35.0255+265.017+36.1635+265.017+37.5672C265.017+38.971+263.879+40.109+262.475+40.109C261.071+40.109+259.933+38.971+259.933+37.5672Z" opacity="1" fill="#ff1414"/>
<path d="M513.087+69.9987C513.605+68.6943+515.083+68.0574+516.388+68.5762C517.692+69.095+518.329+70.573+517.81+71.8774C517.291+73.1818+515.813+73.8186+514.509+73.2998C513.205+72.7811+512.568+71.3031+513.087+69.9987Z" opacity="1" fill="#ff1414"/>
<path d="M402.1+201.807C402.619+200.502+404.097+199.865+405.401+200.384C406.706+200.903+407.342+202.381+406.824+203.685C406.305+204.99+404.827+205.626+403.522+205.108C402.218+204.589+401.581+203.111+402.1+201.807Z" opacity="1" fill="#ff1414"/>
<path d="M216.203+40.0767C216.203+38.6729+217.341+37.5349+218.744+37.5349C220.148+37.5349+221.286+38.6729+221.286+40.0767C221.286+41.4805+220.148+42.6185+218.744+42.6185C217.341+42.6185+216.203+41.4805+216.203+40.0767Z" opacity="1" fill="#ff1414"/>
<path d="M490.34+43.1547C490.859+41.8503+492.337+41.2135+493.642+41.7323C494.946+42.2511+495.583+43.729+495.064+45.0334C494.545+46.3378+493.067+46.9747+491.763+46.4559C490.458+45.9371+489.822+44.4591+490.34+43.1547Z" opacity="1" fill="#ff1414"/>
<path d="M386.495+175.342C387.014+174.038+388.492+173.401+389.796+173.92C391.101+174.439+391.737+175.917+391.219+177.221C390.7+178.526+389.222+179.162+387.917+178.644C386.613+178.125+385.976+176.647+386.495+175.342Z" opacity="1" fill="#ff1414"/>
<path d="M194.568+183.278C194.568+180.996+196.418+179.147+198.699+179.147C200.981+179.147+202.83+180.996+202.83+183.278C202.83+185.559+200.981+187.408+198.699+187.408C196.418+187.408+194.568+185.559+194.568+183.278Z" opacity="1" fill="#ff1414"/>
<path d="M238.645+39.4965C238.645+37.2151+240.494+35.3657+242.776+35.3657C245.057+35.3657+246.907+37.2151+246.907+39.4965C246.907+41.7779+245.057+43.6273+242.776+43.6273C240.494+43.6273+238.645+41.7779+238.645+39.4965Z" opacity="1" fill="#ff1414"/>
<path d="M501.417+57.6815C502.26+55.5617+504.662+54.5267+506.782+55.3698C508.902+56.2129+509.937+58.6149+509.093+60.7348C508.25+62.8546+505.848+63.8896+503.728+63.0465C501.609+62.2034+500.574+59.8014+501.417+57.6815Z" opacity="1" fill="#ff1414"/>
<path d="M394.305+190.477C395.148+188.357+397.55+187.322+399.67+188.165C401.789+189.008+402.824+191.41+401.981+193.53C401.138+195.65+398.736+196.685+396.616+195.842C394.497+194.999+393.461+192.597+394.305+190.477Z" opacity="1" fill="#ff1414"/>
<path stroke="#ff1414" stroke-width="2" d="M192.041+229.406L204.363+146.978" fill="none" stroke-linecap="round" opacity="1" stroke-linejoin="round"/>
<path stroke="#ff1414" stroke-width="2" d="M218.85+40.3173L243.019+39.6592L262.661+37.8054" fill="none" stroke-linecap="round" opacity="1" stroke-linejoin="round"/>
<path stroke="#ff1414" stroke-width="2" d="M492.899+44.668L505.421+59.4492L514.124+69.809" fill="none" stroke-linecap="round" opacity="1" stroke-linejoin="round"/>
<path stroke="#ff1414" stroke-width="2" d="M388.389+176.731L397.003+190.566L404.442+202.704" fill="none" stroke-linecap="round" opacity="1" stroke-linejoin="round"/>
<path stroke="#000000" stroke-width="1" d="M204.79+158.006L204.742+158.26" fill="none" stroke-linecap="round" opacity="1" stroke-linejoin="round"/>
<path d="M539.155+383.021C539.155+380.448+541.11+378.363+543.521+378.363C545.933+378.363+547.888+380.448+547.888+383.021C547.888+385.593+545.933+387.678+543.521+387.678C541.11+387.678+539.155+385.593+539.155+383.021Z" opacity="1" fill="#010101"/>
<path d="M583.189+341.069C583.189+338.497+585.144+336.412+587.555+336.412C589.967+336.412+591.922+338.497+591.922+341.069C591.922+343.641+589.967+345.726+587.555+345.726C585.144+345.726+583.189+343.641+583.189+341.069Z" opacity="1" fill="#010101"/>
</g>
</svg>
